<!--?xml version="1.0" encoding="UTF-8"?-->
<svg xmlns="http://www.w3.org/2000/svg" xmlns:xlink="http://www.w3.org/1999/xlink" viewBox="0 0 64 64" version="1.1">
<g id="surface1">
<path style=" fill:#CDA1A7;" d="M 63 9 L 3 9 L 3 53 L 27.671875 53 L 29 57 L 37 57 L 38.328125 53 L 63 53 Z "></path>
<path style=" fill:#FAEFDE;" d="M 33 52 L 30.671875 49 L 7 49 L 7 7 L 29 7 C 31.210938 7 33 8.789063 33 11 Z "></path>
<path style=" fill:#FAEFDE;" d="M 33 52 L 35.328125 49 L 59 49 L 59 7 L 37 7 C 34.789063 7 33 8.789063 33 11 Z "></path>
<path style=" fill:#EFD8BE;" d="M 39 7 L 37 7 C 34.789063 7 33 8.789063 33 11 L 33 52 L 35.328125 49 L 39 49 Z "></path>
<path style=" fill:#FFF7F0;" d="M 7 7 L 12 7 L 12 49 L 7 49 Z "></path>
<path style=" fill:#8D6C9F;" d="M 61 8 L 59.820313 8 C 59.398438 6.804688 58.269531 6.003906 57 6 L 37 6 C 35.425781 6 33.945313 6.742188 33 8 C 32.054688 6.742188 30.574219 6 29 6 L 9 6 C 7.730469 6.003906 6.601563 6.804688 6.179688 8 L 5 8 C 3.34375 8 2 9.34375 2 11 L 2 51 C 2 52.65625 3.34375 54 5 54 L 26.21875 54 C 26.816406 54.003906 27.328125 54.417969 27.460938 55 C 27.917969 56.769531 29.511719 58.003906 31.339844 58 L 34.660156 58 C 36.488281 58.003906 38.082031 56.769531 38.539063 55 C 38.671875 54.417969 39.183594 54.003906 39.78125 54 L 61 54 C 62.65625 54 64 52.65625 64 51 L 64 11 C 64 9.34375 62.65625 8 61 8 Z M 9 8 L 29 8 C 30.65625 8 32 9.34375 32 11 L 32 37 C 32 37.550781 32.449219 38 33 38 C 33.550781 38 34 37.550781 34 37 L 34 11 C 34 9.34375 35.34375 8 37 8 L 57 8 C 57.550781 8 58 8.449219 58 9 L 58 47 C 58 47.550781 57.550781 48 57 48 L 37 48 C 35.425781 48 33.945313 48.742188 33 50 C 32.054688 48.742188 30.574219 48 29 48 L 9 48 C 8.449219 48 8 47.550781 8 47 L 8 9 C 8 8.449219 8.449219 8 9 8 Z M 62 51 C 62 51.550781 61.550781 52 61 52 L 39.78125 52 C 38.273438 52 36.960938 53.027344 36.601563 54.488281 C 36.375 55.378906 35.578125 56 34.660156 56 L 31.339844 56 C 30.421875 56 29.621094 55.371094 29.398438 54.480469 C 29.035156 53.019531 27.722656 51.996094 26.21875 52 L 5 52 C 4.449219 52 4 51.550781 4 51 L 4 11 C 4 10.449219 4.449219 10 5 10 L 6 10 L 6 47 C 6 48.65625 7.34375 50 9 50 L 29 50 C 30.65625 50 32 51.34375 32 53 C 32 53.550781 32.449219 54 33 54 C 33.550781 54 34 53.550781 34 53 C 34 51.34375 35.34375 50 37 50 L 57 50 C 58.65625 50 60 48.65625 60 47 L 60 10 L 61 10 C 61.550781 10 62 10.449219 62 11 Z "></path>
<path style=" fill:#8D6C9F;" d="M 33 46 C 33.550781 46 34 45.550781 34 45 L 34 41 C 34 40.449219 33.550781 40 33 40 C 32.449219 40 32 40.449219 32 41 L 32 45 C 32 45.550781 32.449219 46 33 46 Z "></path>
<path style=" fill:#8D6C9F;" d="M 53 24 L 51 24 C 50.449219 24 50 24.449219 50 25 C 50 25.550781 50.449219 26 51 26 L 53 26 C 53.550781 26 54 25.550781 54 25 C 54 24.449219 53.550781 24 53 24 Z "></path>
<path style=" fill:#8D6C9F;" d="M 39 26 L 47 26 C 47.550781 26 48 25.550781 48 25 C 48 24.449219 47.550781 24 47 24 L 39 24 C 38.449219 24 38 24.449219 38 25 C 38 25.550781 38.449219 26 39 26 Z "></path>
<path style=" fill:#8D6C9F;" d="M 39 22 L 53 22 C 53.550781 22 54 21.550781 54 21 C 54 20.449219 53.550781 20 53 20 L 39 20 C 38.449219 20 38 20.449219 38 21 C 38 21.550781 38.449219 22 39 22 Z "></path>
<path style=" fill:#8D6C9F;" d="M 39 32 L 53 32 C 53.550781 32 54 31.550781 54 31 C 54 30.449219 53.550781 30 53 30 L 39 30 C 38.449219 30 38 30.449219 38 31 C 38 31.550781 38.449219 32 39 32 Z "></path>
<path style=" fill:#8D6C9F;" d="M 39 40 L 49 40 C 49.550781 40 50 39.550781 50 39 C 50 38.449219 49.550781 38 49 38 L 39 38 C 38.449219 38 38 38.449219 38 39 C 38 39.550781 38.449219 40 39 40 Z "></path>
<path style=" fill:#8D6C9F;" d="M 39 36 L 53 36 C 53.550781 36 54 35.550781 54 35 C 54 34.449219 53.550781 34 53 34 L 39 34 C 38.449219 34 38 34.449219 38 35 C 38 35.550781 38.449219 36 39 36 Z "></path>
<path style=" fill:#8D6C9F;" d="M 27 24 L 13 24 C 12.449219 24 12 24.449219 12 25 C 12 25.550781 12.449219 26 13 26 L 27 26 C 27.550781 26 28 25.550781 28 25 C 28 24.449219 27.550781 24 27 24 Z "></path>
<path style=" fill:#8D6C9F;" d="M 27 38 L 21 38 C 20.449219 38 20 38.449219 20 39 C 20 39.550781 20.449219 40 21 40 L 27 40 C 27.550781 40 28 39.550781 28 39 C 28 38.449219 27.550781 38 27 38 Z "></path>
<path style=" fill:#8D6C9F;" d="M 17 38 L 13 38 C 12.449219 38 12 38.449219 12 39 C 12 39.550781 12.449219 40 13 40 L 17 40 C 17.550781 40 18 39.550781 18 39 C 18 38.449219 17.550781 38 17 38 Z "></path>
<path style=" fill:#8D6C9F;" d="M 27 30 L 13 30 C 12.449219 30 12 30.449219 12 31 C 12 31.550781 12.449219 32 13 32 L 27 32 C 27.550781 32 28 31.550781 28 31 C 28 30.449219 27.550781 30 27 30 Z "></path>
<path style=" fill:#8D6C9F;" d="M 27 20 L 13 20 C 12.449219 20 12 20.449219 12 21 C 12 21.550781 12.449219 22 13 22 L 27 22 C 27.550781 22 28 21.550781 28 21 C 28 20.449219 27.550781 20 27 20 Z "></path>
<path style=" fill:#8D6C9F;" d="M 27 34 L 13 34 C 12.449219 34 12 34.449219 12 35 C 12 35.550781 12.449219 36 13 36 L 27 36 C 27.550781 36 28 35.550781 28 35 C 28 34.449219 27.550781 34 27 34 Z "></path>
<path style=" fill:#8D6C9F;" d="M 12 16 C 12.550781 16 13 15.550781 13 15 L 13 13 C 13 12.449219 12.550781 12 12 12 C 11.449219 12 11 12.449219 11 13 L 11 15 C 11 15.550781 11.449219 16 12 16 Z "></path>
<path style=" fill:#8D6C9F;" d="M 17 16 C 17.550781 16 18 15.550781 18 15 L 18 13 C 18 12.449219 17.550781 12 17 12 C 16.449219 12 16 12.449219 16 13 L 16 15 C 16 15.550781 16.449219 16 17 16 Z "></path>
<path style=" fill:#8D6C9F;" d="M 22 16 C 22.550781 16 23 15.550781 23 15 L 23 13 C 23 12.449219 22.550781 12 22 12 C 21.449219 12 21 12.449219 21 13 L 21 15 C 21 15.550781 21.449219 16 22 16 Z "></path>
<path style=" fill:#8D6C9F;" d="M 27 16 C 27.550781 16 28 15.550781 28 15 L 28 13 C 28 12.449219 27.550781 12 27 12 C 26.449219 12 26 12.449219 26 13 L 26 15 C 26 15.550781 26.449219 16 27 16 Z "></path>
<path style=" fill:#8D6C9F;" d="M 39 16 C 39.550781 16 40 15.550781 40 15 L 40 13 C 40 12.449219 39.550781 12 39 12 C 38.449219 12 38 12.449219 38 13 L 38 15 C 38 15.550781 38.449219 16 39 16 Z "></path>
<path style=" fill:#8D6C9F;" d="M 44 16 C 44.550781 16 45 15.550781 45 15 L 45 13 C 45 12.449219 44.550781 12 44 12 C 43.449219 12 43 12.449219 43 13 L 43 15 C 43 15.550781 43.449219 16 44 16 Z "></path>
<path style=" fill:#8D6C9F;" d="M 49 16 C 49.550781 16 50 15.550781 50 15 L 50 13 C 50 12.449219 49.550781 12 49 12 C 48.449219 12 48 12.449219 48 13 L 48 15 C 48 15.550781 48.449219 16 49 16 Z "></path>
<path style=" fill:#8D6C9F;" d="M 54 16 C 54.550781 16 55 15.550781 55 15 L 55 13 C 55 12.449219 54.550781 12 54 12 C 53.449219 12 53 12.449219 53 13 L 53 15 C 53 15.550781 53.449219 16 54 16 Z "></path>
</g>
</svg>