<!--?xml version="1.0" encoding="UTF-8"?-->
<svg version="1.1" id="Слой_1" xmlns="http://www.w3.org/2000/svg" xmlns:xlink="http://www.w3.org/1999/xlink" x="0px" y="0px" viewBox="0 0 128 128" enable-background="new 0 0 128 128" xml:space="preserve">
<g>
	<g>
		<g>
			<g>
				<path fill="#E1ECE7" d="M34,119L34,119c5.5,0,10-4.5,10-10V49H24v60C24,114.5,28.5,119,34,119z"></path>
			</g>
		</g>
	</g>
	<g>
		<g>
			<g>
				<g>
					<path fill="#A1C4B7" d="M44,49L44,49c-6.4,6.4-10,15.1-10,24.1V119h0c5.5,0,10-4.5,10-10L44,49L44,49z"></path>
				</g>
			</g>
		</g>
	</g>
	<g>
		<g>
			<g>
				<path fill="#A1C4B7" d="M44,49H24V39c0-5.5,4.5-10,10-10h10V49z"></path>
			</g>
		</g>
	</g>
	<g>
		<g>
			<g>
				<path fill="#FFFFFF" d="M94,29H34c-5.5,0-10,4.5-10,10v10V39c0-5.5,4.5-10,10-10h0c5.5,0,10,4.5,10,10v20h60V39
					C104,33.5,99.5,29,94,29z"></path>
			</g>
		</g>
	</g>
	<g>
		<g>
			<g>
				<path fill="#CBDED6" d="M104,109c0,5.5-4.5,10-10,10H34h0c5.5,0,10-4.5,10-10V59h60V109z"></path>
			</g>
		</g>
	</g>
	<g>
		<g>
			<g>
				<path fill="#454B54" d="M94,122H34c-1.7,0-3-1.3-3-3s1.3-3,3-3c3.9,0,7-3.1,7-7V69c0-1.7,1.3-3,3-3s3,1.3,3,3v40
					c0,2.6-0.8,5-2,7h49c3.9,0,7-3.1,7-7V69c0-1.7,1.3-3,3-3s3,1.3,3,3v40C107,116.2,101.2,122,94,122z"></path>
			</g>
		</g>
	</g>
	<g>
		<g>
			<g>
				<path fill="#454B54" d="M34,122c-7.2,0-13-5.8-13-13V49c0-1.7,1.3-3,3-3s3,1.3,3,3v60c0,3.9,3.1,7,7,7c1.7,0,3,1.3,3,3
					S35.7,122,34,122z"></path>
			</g>
		</g>
	</g>
	<g>
		<g>
			<g>
				<path fill="#454B54" d="M104,62H44c-1.7,0-3-1.3-3-3V39c0-3.9-3.1-7-7-7s-7,3.1-7,7v10c0,1.7-1.3,3-3,3s-3-1.3-3-3V39
					c0-7.2,5.8-13,13-13h60c7.2,0,13,5.8,13,13v20C107,60.7,105.7,62,104,62z M47,56h54V39c0-3.9-3.1-7-7-7H45c1.3,2,2,4.4,2,7V56z"></path>
			</g>
		</g>
	</g>
	<g>
		<g>
			<g>
				<path fill="#454B54" d="M56,72c-1.7,0-3-1.3-3-3V49c0-1.7,1.3-3,3-3s3,1.3,3,3v20C59,70.7,57.7,72,56,72z"></path>
			</g>
		</g>
	</g>
	<g>
		<g>
			<g>
				<path fill="#454B54" d="M92,72c-1.7,0-3-1.3-3-3V49c0-1.7,1.3-3,3-3s3,1.3,3,3v20C95,70.7,93.7,72,92,72z"></path>
			</g>
		</g>
	</g>
	<g>
		<g>
			<g>
				<rect x="59" y="84" fill="#FFFFFF" width="30" height="20"></rect>
			</g>
		</g>
	</g>
	<g>
		<g>
			<g>
				<path fill="#454B54" d="M59,107c-1.7,0-3-1.3-3-3V84c0-1.7,1.3-3,3-3s3,1.3,3,3v20C62,105.7,60.7,107,59,107z"></path>
			</g>
		</g>
	</g>
	<g>
		<g>
			<g>
				<path fill="#454B54" d="M89,107H59c-1.7,0-3-1.3-3-3s1.3-3,3-3h27V84c0-1.7,1.3-3,3-3s3,1.3,3,3v20C92,105.7,90.7,107,89,107z"></path>
			</g>
		</g>
	</g>
	<g>
		<g>
			<g>
				<g>
					<path fill="#454B54" d="M89,87L89,87c-1.7,0-3-1.3-3-3s1.3-3,3-3s3,1.3,3,3S90.7,87,89,87z"></path>
				</g>
			</g>
		</g>
		<g>
			<g>
				<g>
					<path fill="#454B54" d="M79,87L79,87c-1.7,0-3.1-1.3-3.1-3s1.3-3,3-3s3,1.3,3,3S80.7,87,79,87z M69,87L69,87
						c-1.7,0-3.1-1.3-3.1-3s1.3-3,3-3s3,1.3,3,3S70.7,87,69,87z"></path>
				</g>
			</g>
		</g>
		<g>
			<g>
				<g>
					<path fill="#454B54" d="M59,87L59,87c-1.7,0-3-1.3-3-3s1.3-3,3-3s3,1.3,3,3S60.7,87,59,87z"></path>
				</g>
			</g>
		</g>
	</g>
	<g>
		<g>
			<g>
				<path fill="#454B54" d="M66,22c-1.7,0-3-1.3-3-3c0-3.9-3.1-7-7-7s-7,3.1-7,7c0,1.7-1.3,3-3,3s-3-1.3-3-3c0-7.2,5.8-13,13-13
					s13,5.8,13,13C69,20.7,67.7,22,66,22z"></path>
			</g>
		</g>
	</g>
</g>
</svg>