<!--?xml version="1.0" encoding="UTF-8"?-->
<svg version="1.1" id="Слой_1" xmlns="http://www.w3.org/2000/svg" xmlns:xlink="http://www.w3.org/1999/xlink" x="0px" y="0px" viewBox="0 0 128 128" enable-background="new 0 0 128 128" xml:space="preserve">
<g>
	<path fill="#F2E5AC" d="M93.1,15.5l-11.3-2.8c-1.5-0.4-3-0.6-4.6-0.6H50.8c-1.6,0-3.1,0.2-4.6,0.6l-11.3,2.8
		c-4.6,1.1-8.6,3.9-11.2,7.9l-14,21c-1.5,2.2-0.9,5.1,1.3,6.6l8,5.3c2,1.4,4.8,0.9,6.3-1l5.3-6.5v62.4c0,2.6,2.1,4.7,4.7,4.7h57.2
		c2.6,0,4.7-2.1,4.7-4.7V48.7l5.3,6.6c1.5,1.9,4.3,2.3,6.3,1l8-5.3c2.2-1.5,2.8-4.4,1.3-6.6l-14-21C101.6,19.5,97.6,16.7,93.1,15.5z
		"></path>
	<path opacity="0.1" fill="#0C0F13" d="M99.8,51.8l-5-3.1l-6.9,62.4c0,2.6-2.1,4.7-4.7,4.7h9.5c2.6,0,4.7-2.1,4.7-4.7V57
		C95.8,57.1,100.9,53.1,99.8,51.8z"></path>
	<path opacity="0.1" fill="#0C0F13" d="M118.2,44.3l-14-21c-2.6-3.9-6.6-6.7-11.2-7.9l-11.3-2.8c-1.5-0.4-3-0.6-4.6-0.6h-9.5
		c1.6,0,3.1,0.2,4.6,0.6l11.3,2.8c4.6,1.1,8.6,3.9,11.2,7.9l14,21c1.5,2.2,0.9,5.1-1.3,6.6l-5.4,3.6l0.6,0.7c1.5,1.9,4.3,2.3,6.3,1
		l8-5.3C119.1,49.5,119.7,46.5,118.2,44.3z"></path>
	<path fill="#F7F7FB" d="M79.4,13.3c-0.8,7.8-7.4,14.3-15.4,14.3c-8.2,0-14.8-6.3-15.5-14.3"></path>
	<path fill="#454B54" d="M64,30.6c-9.6,0-17.7-7.5-18.4-17.1c-0.1-1.7,1.1-3.1,2.8-3.2c1.7-0.1,3.1,1.1,3.2,2.8
		c0.5,6.5,6,11.5,12.5,11.5c6.3,0,11.8-5.1,12.4-11.6c0.2-1.6,1.6-2.8,3.3-2.7c1.6,0.2,2.9,1.6,2.7,3.3C81.5,23.2,73.4,30.6,64,30.6
		z"></path>
	<path fill="#454B54" d="M92.6,118.9H35.4c-4.3,0-7.7-3.5-7.7-7.7V57.2C26.2,59,24,60,21.7,60c-1.5,0-3-0.4-4.3-1.3l-8-5.3
		c-1.7-1.1-2.9-2.9-3.3-4.9c-0.4-2,0-4.1,1.1-5.8l14-21c3-4.6,7.6-7.8,12.9-9.1l11.3-2.8c1.7-0.4,3.5-0.7,5.3-0.7h26.3
		c1.8,0,3.6,0.2,5.3,0.7l11.3,2.8c5.3,1.3,9.9,4.6,12.9,9.1l14,21c1.1,1.7,1.6,3.8,1.1,5.8c-0.4,2-1.6,3.8-3.3,4.9l-8,5.3
		c-1.3,0.9-2.8,1.3-4.3,1.3l0,0c-2.3,0-4.5-1-6-2.8v53.9C100.3,115.4,96.9,118.9,92.6,118.9z M30.7,45.7c0.3,0,0.7,0.1,1,0.2
		c1.2,0.4,2,1.6,2,2.8v62.4c0,1,0.8,1.7,1.7,1.7h57.2c1,0,1.7-0.8,1.7-1.7V48.7c0-1.3,0.8-2.4,2-2.8c1.2-0.4,2.5,0,3.3,0.9l5.3,6.6
		c0.3,0.4,0.8,0.6,1.4,0.6l0,0c0.3,0,0.7-0.1,1-0.3l8-5.3c0.4-0.3,0.6-0.6,0.7-1.1s0-0.9-0.3-1.3l-14-21c-2.2-3.3-5.5-5.7-9.4-6.6
		L81,15.6c-1.3-0.3-2.6-0.5-3.9-0.5H50.8c-1.3,0-2.6,0.2-3.9,0.5l-11.3,2.8c-3.9,1-7.2,3.3-9.4,6.6l-14,21c-0.3,0.4-0.3,0.8-0.3,1.3
		s0.4,0.8,0.7,1.1l8,5.3c0.7,0.5,1.8,0.3,2.3-0.4l5.3-6.5C28.9,46.1,29.8,45.7,30.7,45.7z"></path>
</g>
</svg>