<svg xmlns="http://www.w3.org/2000/svg" xmlns:xlink="http://www.w3.org/1999/xlink" viewBox="0 0 64 64" version="1.1">
<g id="surface1">
<path style=" fill:#ACB7D0;" d="M 61 29 L 31.949219 12 L 3 29 L 3 32 L 32 45 L 61 32 Z "></path>
<path style=" fill:#BBDEF9;" d="M 22.238281 4.941406 L 48 4.941406 C 49.65625 4.941406 51 6.28125 51 7.941406 L 51 35.941406 L 31.949219 44.941406 L 13 35.941406 L 13 14.179688 C 13 13.382813 13.316406 12.621094 13.878906 12.058594 L 20.121094 5.820313 C 20.683594 5.257813 21.445313 4.941406 22.238281 4.941406 Z "></path>
<path style=" fill:#CCE7FC;" d="M 51 29.46875 L 51 8.628906 L 25.070313 41.378906 L 29 44 L 37 43 L 42.300781 40.46875 Z "></path>
<path style=" fill:#CCE7FC;" d="M 22.789063 40 L 50.5 5 L 46 5 L 19 39.101563 Z "></path>
<path style=" fill:#CCE7FC;" d="M 16 38.210938 L 43.5 5 L 42 5 L 15 37.53125 Z "></path>
<path style=" fill:#FFFFFF;" d="M 44.5 21 L 45.738281 23.261719 L 48 24.5 L 45.738281 25.738281 L 44.5 28 L 43.261719 25.738281 L 41 24.5 L 43.261719 23.261719 Z "></path>
<path style=" fill:#FFFFFF;" d="M 32.421875 8 L 33.269531 9.558594 L 34.839844 10.421875 L 33.269531 11.269531 L 32.421875 12.839844 L 31.558594 11.269531 L 30 10.421875 L 31.558594 9.558594 Z "></path>
<path style=" fill:#FFFFFF;" d="M 31.648438 38 L 32.230469 39.058594 L 33.300781 39.648438 L 32.230469 40.230469 L 31.648438 41.300781 L 31.070313 40.230469 L 30 39.648438 L 31.070313 39.058594 Z "></path>
<path style=" fill:#FFEFB8;" d="M 23 4.941406 L 23 14.941406 L 13 14.941406 Z "></path>
<path style=" fill:#FAEFDE;" d="M 59 59.230469 L 4.890625 59.230469 C 3.785156 59.230469 2.890625 58.335938 2.890625 57.230469 L 2.890625 31.871094 L 32 44.871094 L 61 31.871094 L 61 57.230469 C 61 58.335938 60.105469 59.230469 59 59.230469 Z "></path>
<path style=" fill:#EFD8BE;" d="M 6.890625 52 L 57 52 C 59.210938 52 61 53.789063 61 56 L 61 57.230469 C 61 58.335938 60.105469 59.230469 59 59.230469 L 4.890625 59.230469 C 3.785156 59.230469 2.890625 58.335938 2.890625 57.230469 L 2.890625 56 C 2.890625 53.789063 4.679688 52 6.890625 52 Z "></path>
<path style=" fill:#8D6C9F;" d="M 60.539063 27.558594 L 52 22.429688 L 52 7 C 52 5.34375 50.65625 4 49 4 L 23.660156 4 C 22.332031 3.996094 21.058594 4.523438 20.121094 5.460938 L 13.460938 12.121094 C 12.523438 13.058594 11.996094 14.332031 12 15.660156 L 12 22.441406 L 3.460938 27.558594 C 2.554688 28.101563 2 29.078125 2 30.128906 L 2 57 C 2 58.65625 3.34375 60 5 60 L 59 60 C 60.65625 60 62 58.65625 62 57 L 62 30.128906 C 62 29.078125 61.445313 28.101563 60.539063 27.558594 Z M 21.539063 6.878906 C 21.679688 6.738281 21.835938 6.609375 22 6.5 L 22 13 C 22 13.550781 21.550781 14 21 14 L 14.5 14 C 14.609375 13.835938 14.738281 13.679688 14.878906 13.539063 Z M 4.539063 29.28125 L 12 24.769531 L 12 31 C 12 31.550781 12.449219 32 13 32 C 13.550781 32 14 31.550781 14 31 L 14 16 L 21 16 C 22.65625 16 24 14.65625 24 13 L 24 6 L 49 6 C 49.550781 6 50 6.449219 50 7 L 50 31 C 50 31.550781 50.449219 32 51 32 C 51.550781 32 52 31.550781 52 31 L 52 24.769531 L 59.511719 29.28125 C 59.8125 29.460938 60 29.785156 60 30.140625 L 60 31.359375 L 33.230469 43.359375 C 32.449219 43.707031 31.558594 43.707031 30.78125 43.359375 L 4 31.351563 L 4 30.128906 C 4 29.777344 4.1875 29.449219 4.488281 29.269531 Z M 59 58 L 5 58 C 4.449219 58 4 57.550781 4 57 L 4 33.539063 L 30 45.179688 C 31.300781 45.761719 32.789063 45.761719 34.089844 45.179688 L 60 33.539063 L 60 57 C 60 57.550781 59.550781 58 59 58 Z "></path>
<path style=" fill:#8D6C9F;" d="M 12 50 C 11.449219 50 11 50.449219 11 51 L 11 53 C 11 53.550781 11.449219 54 12 54 C 12.550781 54 13 53.550781 13 53 L 13 51 C 13 50.449219 12.550781 50 12 50 Z "></path>
<path style=" fill:#8D6C9F;" d="M 7 50 C 6.449219 50 6 50.449219 6 51 L 6 53 C 6 53.550781 6.449219 54 7 54 C 7.550781 54 8 53.550781 8 53 L 8 51 C 8 50.449219 7.550781 50 7 50 Z "></path>
<path style=" fill:#8D6C9F;" d="M 17 50 C 16.449219 50 16 50.449219 16 51 L 16 53 C 16 53.550781 16.449219 54 17 54 C 17.550781 54 18 53.550781 18 53 L 18 51 C 18 50.449219 17.550781 50 17 50 Z "></path>
<path style=" fill:#8D6C9F;" d="M 22 50 C 21.449219 50 21 50.449219 21 51 L 21 53 C 21 53.550781 21.449219 54 22 54 C 22.550781 54 23 53.550781 23 53 L 23 51 C 23 50.449219 22.550781 50 22 50 Z "></path>
<path style=" fill:#8D6C9F;" d="M 27 50 C 26.449219 50 26 50.449219 26 51 L 26 53 C 26 53.550781 26.449219 54 27 54 C 27.550781 54 28 53.550781 28 53 L 28 51 C 28 50.449219 27.550781 50 27 50 Z "></path>
<path style=" fill:#8D6C9F;" d="M 32 50 C 31.449219 50 31 50.449219 31 51 L 31 53 C 31 53.550781 31.449219 54 32 54 C 32.550781 54 33 53.550781 33 53 L 33 51 C 33 50.449219 32.550781 50 32 50 Z "></path>
<path style=" fill:#8D6C9F;" d="M 37 50 C 36.449219 50 36 50.449219 36 51 L 36 53 C 36 53.550781 36.449219 54 37 54 C 37.550781 54 38 53.550781 38 53 L 38 51 C 38 50.449219 37.550781 50 37 50 Z "></path>
<path style=" fill:#8D6C9F;" d="M 42 50 C 41.449219 50 41 50.449219 41 51 L 41 53 C 41 53.550781 41.449219 54 42 54 C 42.550781 54 43 53.550781 43 53 L 43 51 C 43 50.449219 42.550781 50 42 50 Z "></path>
<path style=" fill:#8D6C9F;" d="M 47 50 C 46.449219 50 46 50.449219 46 51 L 46 53 C 46 53.550781 46.449219 54 47 54 C 47.550781 54 48 53.550781 48 53 L 48 51 C 48 50.449219 47.550781 50 47 50 Z "></path>
<path style=" fill:#8D6C9F;" d="M 52 50 C 51.449219 50 51 50.449219 51 51 L 51 53 C 51 53.550781 51.449219 54 52 54 C 52.550781 54 53 53.550781 53 53 L 53 51 C 53 50.449219 52.550781 50 52 50 Z "></path>
<path style=" fill:#8D6C9F;" d="M 57 50 C 56.449219 50 56 50.449219 56 51 L 56 53 C 56 53.550781 56.449219 54 57 54 C 57.550781 54 58 53.550781 58 53 L 58 51 C 58 50.449219 57.550781 50 57 50 Z "></path>
<path style=" fill:#8D6C9F;" d="M 31 36 L 37 36 C 37.550781 36 38 35.550781 38 35 C 38 34.449219 37.550781 34 37 34 L 31 34 C 28.238281 34 26 31.761719 26 29 L 26 23 C 26 20.238281 28.238281 18 31 18 L 33 18 C 35.761719 18 38 20.238281 38 23 L 38 29 C 38 29.550781 37.550781 30 37 30 C 36.449219 30 36 29.550781 36 29 L 36 24 C 36 21.789063 34.210938 20 32 20 C 29.789063 20 28 21.789063 28 24 L 28 28 C 28.007813 29.585938 28.953125 31.011719 30.402344 31.644531 C 31.855469 32.277344 33.546875 31.992188 34.710938 30.921875 C 35.519531 31.878906 36.84375 32.230469 38.023438 31.800781 C 39.203125 31.375 39.992188 30.253906 40 29 L 40 23 C 40 19.132813 36.867188 16 33 16 L 31 16 C 27.132813 16 24 19.132813 24 23 L 24 29 C 24 32.867188 27.132813 36 31 36 Z M 32 30 C 30.894531 30 30 29.105469 30 28 L 30 24 C 30 22.894531 30.894531 22 32 22 C 33.105469 22 34 22.894531 34 24 L 34 28 C 34 29.105469 33.105469 30 32 30 Z "></path>
</g>
</svg>