<!--?xml version="1.0" encoding="UTF-8"?-->
<svg xmlns="http://www.w3.org/2000/svg" xmlns:xlink="http://www.w3.org/1999/xlink" viewBox="0 0 64 64" version="1.1">
<g id="surface1">
<path style=" fill:#9FDDFF;" d="M 9 33 L 11 33 L 11 55 L 9 55 C 4.582031 55 1 51.417969 1 47 L 1 41 C 1 36.582031 4.582031 33 9 33 Z "></path>
<path style=" fill:#C2CDE7;" d="M 44.160156 19.609375 C 43.429688 20.40625 42.199219 20.476563 41.378906 19.769531 C 36.074219 14.871094 27.894531 14.871094 22.589844 19.769531 C 21.777344 20.472656 20.554688 20.40625 19.820313 19.621094 L 15 14.46875 C 18.996094 9.773438 24.835938 7.046875 31 7 L 33.101563 7 C 39.222656 7.066406 45.019531 9.777344 49 14.429688 Z "></path>
<path style=" fill:#85CBF8;" d="M 1 44 L 1 47 C 1 51.417969 4.582031 55 9 55 L 11 55 L 11 44 Z "></path>
<path style=" fill:#ACB7D0;" d="M 31 12.699219 C 26.027344 12.722656 21.226563 14.519531 17.460938 17.769531 L 19.871094 20.339844 C 20.601563 21.125 21.828125 21.191406 22.640625 20.488281 C 27.945313 15.589844 36.125 15.589844 41.429688 20.488281 C 42.246094 21.195313 43.480469 21.125 44.210938 20.328125 L 46.609375 17.761719 C 42.84375 14.542969 38.054688 12.769531 33.101563 12.761719 Z "></path>
<path style=" fill:#ACB7D0;" d="M 15 33 L 15 55 C 15 56.105469 14.105469 57 13 57 C 11.894531 57 11 56.105469 11 55 L 11 33 C 11 31.894531 11.894531 31 13 31 C 14.105469 31 15 31.894531 15 33 Z "></path>
<path style=" fill:#ACB7D0;" d="M 49 55 L 49 33 C 49 31.894531 49.894531 31 51 31 C 52.105469 31 53 31.894531 53 33 L 53 55 C 53 56.105469 52.105469 57 51 57 C 49.894531 57 49 56.105469 49 55 Z "></path>
<path style=" fill:#9FDDFF;" d="M 55 55 L 53 55 L 53 33 L 55 33 C 59.417969 33 63 36.582031 63 41 L 63 47 C 63 51.417969 59.417969 55 55 55 Z "></path>
<path style=" fill:#85CBF8;" d="M 63 44 L 63 47 C 63 51.417969 59.417969 55 55 55 L 53 55 L 53 44 Z "></path>
<path style=" fill:#8D6C9F;" d="M 32 10 C 31.449219 10 31 10.449219 31 11 L 31 13 C 31 13.550781 31.449219 14 32 14 C 32.550781 14 33 13.550781 33 13 L 33 11 C 33 10.449219 32.550781 10 32 10 Z "></path>
<path style=" fill:#8D6C9F;" d="M 27.398438 11.46875 C 27.242188 10.953125 26.703125 10.65625 26.183594 10.796875 C 25.664063 10.9375 25.347656 11.464844 25.46875 11.988281 L 26 13.921875 C 26.082031 14.277344 26.351563 14.558594 26.707031 14.65625 C 27.058594 14.753906 27.433594 14.652344 27.691406 14.390625 C 27.945313 14.128906 28.039063 13.75 27.929688 13.398438 Z "></path>
<path style=" fill:#8D6C9F;" d="M 43.25 13 C 43.019531 12.867188 42.746094 12.832031 42.488281 12.898438 C 42.230469 12.96875 42.011719 13.136719 41.878906 13.371094 L 40.878906 15.101563 C 40.632813 15.574219 40.800781 16.160156 41.265625 16.429688 C 41.730469 16.699219 42.324219 16.550781 42.609375 16.101563 L 43.609375 14.371094 C 43.746094 14.140625 43.78125 13.867188 43.714844 13.609375 C 43.648438 13.351563 43.480469 13.132813 43.25 13 Z "></path>
<path style=" fill:#8D6C9F;" d="M 22.121094 13.378906 C 21.832031 12.929688 21.238281 12.78125 20.777344 13.050781 C 20.3125 13.320313 20.140625 13.90625 20.390625 14.378906 L 21.390625 16.109375 C 21.675781 16.5625 22.269531 16.707031 22.734375 16.4375 C 23.199219 16.171875 23.367188 15.585938 23.121094 15.109375 Z "></path>
<path style=" fill:#8D6C9F;" d="M 37.820313 10.769531 C 37.289063 10.628906 36.742188 10.949219 36.601563 11.480469 L 36.078125 13.410156 C 35.972656 13.757813 36.066406 14.140625 36.320313 14.402344 C 36.574219 14.664063 36.953125 14.765625 37.304688 14.667969 C 37.65625 14.566406 37.925781 14.285156 38.011719 13.929688 L 38.53125 12 C 38.601563 11.742188 38.566406 11.46875 38.429688 11.238281 C 38.296875 11.007813 38.078125 10.839844 37.820313 10.769531 Z "></path>
<path style=" fill:#8D6C9F;" d="M 56 32.058594 L 56 29 C 56 16.296875 45.703125 6 33 6 L 31 6 C 18.296875 6 8 16.296875 8 29 L 8 32.058594 C 3.445313 32.570313 0.00390625 36.417969 0 41 L 0 47 C 0 51.96875 4.03125 56 9 56 L 10.179688 56 C 10.675781 57.363281 12.078125 58.179688 13.507813 57.933594 C 14.9375 57.6875 15.988281 56.453125 16 55 L 16 33 C 15.988281 31.546875 14.9375 30.3125 13.507813 30.066406 C 12.078125 29.820313 10.675781 30.636719 10.179688 32 L 10 32 L 10 29 C 10 24.3125 11.578125 19.761719 14.480469 16.078125 L 19 20.53125 C 19.746094 21.269531 20.757813 21.6875 21.808594 21.691406 C 22.726563 21.691406 23.617188 21.367188 24.320313 20.78125 C 28.765625 17.089844 35.207031 17.089844 39.648438 20.78125 C 41.242188 22.070313 43.550781 21.949219 45 20.5 L 49.488281 16 C 52.417969 19.699219 54.007813 24.28125 54 29 L 54 32 L 53.820313 32 C 53.324219 30.636719 51.921875 29.820313 50.492188 30.066406 C 49.0625 30.3125 48.011719 31.546875 48 33 L 48 55 C 48.011719 56.453125 49.0625 57.6875 50.492188 57.933594 C 51.921875 58.179688 53.324219 57.363281 53.820313 56 L 55 56 C 59.96875 56 64 51.96875 64 47 L 64 41 C 63.996094 36.417969 60.554688 32.570313 56 32.058594 Z M 2 47 L 2 41 C 2 37.132813 5.132813 34 9 34 L 10 34 L 10 54 L 9 54 C 5.132813 54 2 50.867188 2 47 Z M 13 32 C 13.550781 32 14 32.449219 14 33 L 14 55 C 14 55.550781 13.550781 56 13 56 C 12.449219 56 12 55.550781 12 55 L 12 33 C 12 32.449219 12.449219 32 13 32 Z M 43.570313 19.070313 C 42.851563 19.773438 41.71875 19.835938 40.929688 19.210938 C 35.746094 14.910156 28.234375 14.910156 23.050781 19.210938 C 22.261719 19.835938 21.128906 19.773438 20.410156 19.070313 L 15.789063 14.539063 C 19.746094 10.359375 25.246094 7.996094 31 8 L 33 8 C 38.742188 8 44.230469 10.363281 48.179688 14.53125 Z M 51 56 C 50.449219 56 50 55.550781 50 55 L 50 33 C 50 32.449219 50.449219 32 51 32 C 51.550781 32 52 32.449219 52 33 L 52 55 C 52 55.550781 51.550781 56 51 56 Z M 62 47 C 62 50.867188 58.867188 54 55 54 L 54 54 L 54 34 L 55 34 C 58.867188 34 62 37.132813 62 41 Z "></path>
</g>
</svg>