<svg xmlns="http://www.w3.org/2000/svg" xmlns:xlink="http://www.w3.org/1999/xlink" viewBox="0 0 48 48" version="1.1">
<g id="surface1">
<path style=" fill:#546E7A;" d="M 44 40 C 44 41.105469 43.105469 42 42 42 L 6 42 C 4.894531 42 4 41.105469 4 40 L 4 28 C 4 26.894531 4.894531 26 6 26 L 42 26 C 43.105469 26 44 26.894531 44 28 Z "></path>
<path style=" fill:#546E7A;" d="M 6.429688 9.472656 C 4.515625 11.390625 2.914063 14.203125 4.9375 16.199219 C 12.695313 23.871094 14.660156 22.191406 16.304688 20.828125 C 17.078125 20.1875 17.054688 20.1875 17.742188 19.390625 C 19.132813 17.777344 21.015625 15.6875 13.1875 7.945313 C 11.101563 5.890625 8.34375 7.550781 6.429688 9.472656 Z "></path>
<path style=" fill:#263238;" d="M 20 26 L 34 26 L 34 42 L 20 42 Z "></path>
<path style=" fill:#263238;" d="M 16 17.5 C 16 18.328125 15.328125 19 14.5 19 C 13.671875 19 13 18.328125 13 17.5 C 13 16.671875 13.671875 16 14.5 16 C 15.328125 16 16 16.671875 16 17.5 Z "></path>
<path style=" fill:#263238;" d="M 42 37 C 42 38.65625 40.65625 40 39 40 C 37.34375 40 36 38.65625 36 37 L 36 31 C 36 29.34375 37.34375 28 39 28 C 40.65625 28 42 29.34375 42 31 Z "></path>
<path style=" fill:#78909C;" d="M 41 37 C 41 38.105469 40.105469 39 39 39 C 37.894531 39 37 38.105469 37 37 C 37 35.894531 37.894531 35 39 35 C 40.105469 35 41 35.894531 41 37 Z "></path>
<path style=" fill:#78909C;" d="M 41 31 C 41 32.105469 40.105469 33 39 33 C 37.894531 33 37 32.105469 37 31 C 37 29.894531 37.894531 29 39 29 C 40.105469 29 41 29.894531 41 31 Z "></path>
<path style=" fill:#37474F;" d="M 17 37 C 17.550781 37 18 37.445313 18 38 C 18 38.554688 17.550781 39 17 39 L 7 39 C 6.449219 39 6 38.554688 6 38 C 6 37.445313 6.449219 37 7 37 Z "></path>
<path style=" fill:#37474F;" d="M 17 33 C 17.550781 33 18 33.445313 18 34 C 18 34.554688 17.550781 35 17 35 L 7 35 C 6.449219 35 6 34.554688 6 34 C 6 33.445313 6.449219 33 7 33 Z "></path>
<path style=" fill:#37474F;" d="M 17 29 C 17.550781 29 18 29.445313 18 30 C 18 30.554688 17.550781 31 17 31 L 7 31 C 6.449219 31 6 30.554688 6 30 C 6 29.445313 6.449219 29 7 29 Z "></path>
<path style="fill:none;stroke-width:2;stroke-linecap:round;stroke-linejoin:round;stroke:#37474F;stroke-opacity:1;stroke-miterlimit:4;" d="M 7 15 L 12 10 "></path>
<path style="fill:none;stroke-width:2;stroke-linecap:round;stroke-linejoin:round;stroke:#37474F;stroke-opacity:1;stroke-miterlimit:4;" d="M 10 16 L 13 13 "></path>
<path style=" fill:#37474F;" d="M 29.984375 20.351563 C 31.980469 18.628906 33.867188 17 36 17 C 39.757813 17 42 19.183594 42 22.84375 C 42 23.984375 41.601563 25.0625 41.074219 26 L 42 26 C 42.425781 26 42.816406 26.132813 43.140625 26.359375 C 43.644531 25.308594 44 24.121094 44 22.84375 C 44 18.078125 40.859375 15 36 15 C 33.121094 15 30.863281 16.949219 28.675781 18.835938 C 25.351563 21.707031 22.722656 23.976563 18.4375 19.6875 L 17.910156 19.195313 C 17.855469 19.261719 17.800781 19.328125 17.746094 19.390625 C 17.128906 20.097656 17.078125 20.179688 16.53125 20.640625 L 17.042969 21.121094 C 22.621094 26.703125 26.703125 23.183594 29.984375 20.351563 Z "></path>
<path style=" fill:#FFC107;" d="M 22 29 L 32 29 L 32 34 L 22 34 Z "></path>
<path style=" fill:#FFC107;" d="M 26 38 C 26 38.554688 25.554688 39 25 39 L 23 39 C 22.445313 39 22 38.554688 22 38 L 22 37 C 22 36.445313 22.445313 36 23 36 L 25 36 C 25.554688 36 26 36.445313 26 37 Z "></path>
<path style=" fill:#FF3D00;" d="M 32 38 C 32 38.554688 31.554688 39 31 39 L 29 39 C 28.445313 39 28 38.554688 28 38 L 28 37 C 28 36.445313 28.445313 36 29 36 L 31 36 C 31.554688 36 32 36.445313 32 37 Z "></path>
<path style=" fill:#FF8F00;" d="M 23 30 L 29 30 L 29 32 L 23 32 Z "></path>
</g>
</svg>