<svg xmlns="http://www.w3.org/2000/svg" xmlns:xlink="http://www.w3.org/1999/xlink" viewBox="0 0 64 64" version="1.1">
<g id="surface1">
<path style=" fill:#BBDEF9;" d="M 21.238281 4.941406 L 50 4.941406 C 51.65625 4.941406 53 6.28125 53 7.941406 L 53 55.941406 C 53 57.597656 51.65625 58.941406 50 58.941406 L 12 58.941406 C 10.34375 58.941406 9 57.597656 9 55.941406 L 9 17.179688 C 9 16.382813 9.316406 15.621094 9.878906 15.058594 L 19.121094 5.820313 C 19.683594 5.257813 20.445313 4.941406 21.238281 4.941406 Z "></path>
<path style=" fill:#CCE7FC;" d="M 9 59 L 8.851563 49.539063 L 52.339844 6.058594 L 53 29 L 23 59 Z "></path>
<path style=" fill:#CCE7FC;" d="M 8.851563 39.148438 L 43.058594 4.941406 L 48.808594 5.191406 L 9 45 Z "></path>
<path style=" fill:#CCE7FC;" d="M 8.851563 33.148438 L 37 5 L 40 5 L 8.851563 36.148438 Z "></path>
<path style=" fill:#FFFFFF;" d="M 43.5 11 L 44.738281 13.261719 L 47 14.5 L 44.738281 15.738281 L 43.5 18 L 42.261719 15.738281 L 40 14.5 L 42.261719 13.261719 Z "></path>
<path style=" fill:#FFFFFF;" d="M 28.421875 10 L 29.269531 11.558594 L 30.839844 12.421875 L 29.269531 13.269531 L 28.421875 14.839844 L 27.558594 13.269531 L 26 12.421875 L 27.558594 11.558594 Z "></path>
<path style=" fill:#FFFFFF;" d="M 13.648438 47 L 14.230469 48.058594 L 15.300781 48.648438 L 14.230469 49.230469 L 13.648438 50.300781 L 13.058594 49.230469 L 12 48.648438 L 13.058594 48.058594 Z "></path>
<path style=" fill:#FFEFB8;" d="M 21 5 L 21 17 L 9 17 Z "></path>
<path style=" fill:#FFEFB8;" d="M 17 23 L 45 23 L 45 27 L 17 27 Z "></path>
<path style=" fill:#8D6C9F;" d="M 51 4 L 21.660156 4 C 20.332031 3.996094 19.058594 4.523438 18.121094 5.460938 L 9.460938 14.121094 C 8.523438 15.058594 7.996094 16.332031 8 17.660156 L 8 57 C 8 58.65625 9.34375 60 11 60 L 51 60 C 52.65625 60 54 58.65625 54 57 L 54 7 C 54 5.34375 52.65625 4 51 4 Z M 19.539063 6.878906 C 19.679688 6.738281 19.835938 6.609375 20 6.5 L 20 15 C 20 15.550781 19.550781 16 19 16 L 10.5 16 C 10.609375 15.835938 10.738281 15.679688 10.878906 15.539063 Z M 52 57 C 52 57.550781 51.550781 58 51 58 L 11 58 C 10.449219 58 10 57.550781 10 57 L 10 18 L 19 18 C 20.65625 18 22 16.65625 22 15 L 22 6 L 51 6 C 51.550781 6 52 6.449219 52 7 Z "></path>
<path style=" fill:#8D6C9F;" d="M 13 52 C 12.449219 52 12 52.449219 12 53 L 12 55 C 12 55.550781 12.449219 56 13 56 C 13.550781 56 14 55.550781 14 55 L 14 53 C 14 52.449219 13.550781 52 13 52 Z "></path>
<path style=" fill:#8D6C9F;" d="M 18 52 C 17.449219 52 17 52.449219 17 53 L 17 55 C 17 55.550781 17.449219 56 18 56 C 18.550781 56 19 55.550781 19 55 L 19 53 C 19 52.449219 18.550781 52 18 52 Z "></path>
<path style=" fill:#8D6C9F;" d="M 23 52 C 22.449219 52 22 52.449219 22 53 L 22 55 C 22 55.550781 22.449219 56 23 56 C 23.550781 56 24 55.550781 24 55 L 24 53 C 24 52.449219 23.550781 52 23 52 Z "></path>
<path style=" fill:#8D6C9F;" d="M 28 52 C 27.449219 52 27 52.449219 27 53 L 27 55 C 27 55.550781 27.449219 56 28 56 C 28.550781 56 29 55.550781 29 55 L 29 53 C 29 52.449219 28.550781 52 28 52 Z "></path>
<path style=" fill:#8D6C9F;" d="M 33 52 C 32.449219 52 32 52.449219 32 53 L 32 55 C 32 55.550781 32.449219 56 33 56 C 33.550781 56 34 55.550781 34 55 L 34 53 C 34 52.449219 33.550781 52 33 52 Z "></path>
<path style=" fill:#8D6C9F;" d="M 38 52 C 37.449219 52 37 52.449219 37 53 L 37 55 C 37 55.550781 37.449219 56 38 56 C 38.550781 56 39 55.550781 39 55 L 39 53 C 39 52.449219 38.550781 52 38 52 Z "></path>
<path style=" fill:#8D6C9F;" d="M 43 52 C 42.449219 52 42 52.449219 42 53 L 42 55 C 42 55.550781 42.449219 56 43 56 C 43.550781 56 44 55.550781 44 55 L 44 53 C 44 52.449219 43.550781 52 43 52 Z "></path>
<path style=" fill:#8D6C9F;" d="M 48 52 C 47.449219 52 47 52.449219 47 53 L 47 55 C 47 55.550781 47.449219 56 48 56 C 48.550781 56 49 55.550781 49 55 L 49 53 C 49 52.449219 48.550781 52 48 52 Z "></path>
<path style=" fill:#8D6C9F;" d="M 25 34 L 39 34 C 39.550781 34 40 33.550781 40 33 C 40 32.449219 39.550781 32 39 32 L 25 32 C 24.449219 32 24 32.449219 24 33 C 24 33.550781 24.449219 34 25 34 Z "></path>
<path style=" fill:#8D6C9F;" d="M 25 40 L 37 40 C 37.550781 40 38 39.550781 38 39 C 38 38.449219 37.550781 38 37 38 L 25 38 C 24.449219 38 24 38.449219 24 39 C 24 39.550781 24.449219 40 25 40 Z "></path>
<path style=" fill:#8D6C9F;" d="M 41 44 L 25 44 C 24.449219 44 24 44.449219 24 45 C 24 45.550781 24.449219 46 25 46 L 41 46 C 41.550781 46 42 45.550781 42 45 C 42 44.449219 41.550781 44 41 44 Z "></path>
<path style=" fill:#8D6C9F;" d="M 44 22 L 18 22 C 16.894531 22 16 22.894531 16 24 L 16 26 C 16 27.105469 16.894531 28 18 28 L 44 28 C 45.105469 28 46 27.105469 46 26 L 46 24 C 46 22.894531 45.105469 22 44 22 Z M 18 26 L 18 24 L 44 24 L 44 26 Z "></path>
<path style=" fill:#8D6C9F;" d="M 21 33 C 21 34.105469 20.105469 35 19 35 C 17.894531 35 17 34.105469 17 33 C 17 31.894531 17.894531 31 19 31 C 20.105469 31 21 31.894531 21 33 Z "></path>
<path style=" fill:#8D6C9F;" d="M 21 39 C 21 40.105469 20.105469 41 19 41 C 17.894531 41 17 40.105469 17 39 C 17 37.894531 17.894531 37 19 37 C 20.105469 37 21 37.894531 21 39 Z "></path>
<path style=" fill:#8D6C9F;" d="M 21 45 C 21 46.105469 20.105469 47 19 47 C 17.894531 47 17 46.105469 17 45 C 17 43.894531 17.894531 43 19 43 C 20.105469 43 21 43.894531 21 45 Z "></path>
<path style=" fill:#8D6C9F;" d="M 45 38 L 41 38 C 40.449219 38 40 38.449219 40 39 C 40 39.550781 40.449219 40 41 40 L 45 40 C 45.550781 40 46 39.550781 46 39 C 46 38.449219 45.550781 38 45 38 Z "></path>
</g>
</svg>