<svg xmlns="http://www.w3.org/2000/svg" xmlns:xlink="http://www.w3.org/1999/xlink" viewBox="0 0 64 64" version="1.1">
<g id="surface1">
<path style=" fill:#ACB7D0;" d="M 21 1 L 43 1 C 46.3125 1 49 3.6875 49 7 L 49 57 C 49 60.3125 46.3125 63 43 63 L 21 63 C 17.6875 63 15 60.3125 15 57 L 15 7 C 15 3.6875 17.6875 1 21 1 Z "></path>
<path style=" fill:#ACB7D0;" d="M 15 53 L 49 53 L 49 57 C 49 60.3125 46.3125 63 43 63 L 21 63 C 17.6875 63 15 60.3125 15 57 Z "></path>
<path style=" fill:#C5E4FA;" d="M 15 9 L 49 9 L 49 53 L 15 53 Z "></path>
<path style=" fill:#E3F2FF;" d="M 31 53 L 49.378906 34.628906 L 49 20 L 16 53 Z "></path>
<path style=" fill:#E3F2FF;" d="M 15 50 L 49 16 L 49 10 L 15 44 Z "></path>
<path style=" fill:#E3F2FF;" d="M 15 40 L 46 9 L 41 9 L 15 35 Z "></path>
<path style=" fill:#FFF8F8;" d="M 35.628906 27.871094 C 35.832031 27.730469 35.96875 27.511719 36 27.265625 C 36.03125 27.019531 35.953125 26.773438 35.789063 26.589844 C 34.367188 24.96875 32.089844 24.398438 30.070313 25.15625 C 28.050781 25.917969 26.714844 27.847656 26.714844 30.003906 C 26.714844 32.160156 28.050781 34.09375 30.070313 34.851563 C 32.089844 35.613281 34.367188 35.042969 35.789063 33.421875 C 35.953125 33.234375 36.03125 32.988281 36 32.742188 C 35.96875 32.5 35.832031 32.277344 35.628906 32.140625 C 34.925781 31.660156 34.503906 30.863281 34.503906 30.011719 C 34.503906 29.15625 34.925781 28.359375 35.628906 27.878906 Z "></path>
<path style=" fill:#8D6C9F;" d="M 43 0 L 21 0 C 17.132813 0 14 3.132813 14 7 L 14 57 C 14 60.867188 17.132813 64 21 64 L 43 64 C 46.867188 64 50 60.867188 50 57 L 50 7 C 50 3.132813 46.867188 0 43 0 Z M 16 10 L 48 10 L 48 52 L 16 52 Z M 21 2 L 43 2 C 45.761719 2 48 4.238281 48 7 L 48 8 L 16 8 L 16 7 C 16 4.238281 18.238281 2 21 2 Z M 43 62 L 21 62 C 18.238281 62 16 59.761719 16 57 L 16 54 L 48 54 L 48 57 C 48 59.761719 45.761719 62 43 62 Z "></path>
<path style=" fill:#8D6C9F;" d="M 19 44 C 18.449219 44 18 44.449219 18 45 L 18 47 C 18 47.550781 18.449219 48 19 48 C 19.550781 48 20 47.550781 20 47 L 20 45 C 20 44.449219 19.550781 44 19 44 Z "></path>
<path style=" fill:#8D6C9F;" d="M 24 44 C 23.449219 44 23 44.449219 23 45 L 23 47 C 23 47.550781 23.449219 48 24 48 C 24.550781 48 25 47.550781 25 47 L 25 45 C 25 44.449219 24.550781 44 24 44 Z "></path>
<path style=" fill:#8D6C9F;" d="M 29 44 C 28.449219 44 28 44.449219 28 45 L 28 47 C 28 47.550781 28.449219 48 29 48 C 29.550781 48 30 47.550781 30 47 L 30 45 C 30 44.449219 29.550781 44 29 44 Z "></path>
<path style=" fill:#8D6C9F;" d="M 45 44 C 44.449219 44 44 44.449219 44 45 L 44 47 C 44 47.550781 44.449219 48 45 48 C 45.550781 48 46 47.550781 46 47 L 46 45 C 46 44.449219 45.550781 44 45 44 Z "></path>
<path style=" fill:#8D6C9F;" d="M 35 44 C 34.449219 44 34 44.449219 34 45 L 34 47 C 34 47.550781 34.449219 48 35 48 C 35.550781 48 36 47.550781 36 47 L 36 45 C 36 44.449219 35.550781 44 35 44 Z "></path>
<path style=" fill:#8D6C9F;" d="M 40 44 C 39.449219 44 39 44.449219 39 45 L 39 47 C 39 47.550781 39.449219 48 40 48 C 40.550781 48 41 47.550781 41 47 L 41 45 C 41 44.449219 40.550781 44 40 44 Z "></path>
<path style=" fill:#8D6C9F;" d="M 34 58 C 34 59.105469 33.105469 60 32 60 C 30.894531 60 30 59.105469 30 58 C 30 56.894531 30.894531 56 32 56 C 33.105469 56 34 56.894531 34 58 Z "></path>
<path style=" fill:#8D6C9F;" d="M 33 6 L 37 6 C 37.550781 6 38 5.550781 38 5 C 38 4.449219 37.550781 4 37 4 L 33 4 C 32.449219 4 32 4.449219 32 5 C 32 5.550781 32.449219 6 33 6 Z "></path>
<path style=" fill:#8D6C9F;" d="M 27 6 L 29 6 C 29.550781 6 30 5.550781 30 5 C 30 4.449219 29.550781 4 29 4 L 27 4 C 26.449219 4 26 4.449219 26 5 C 26 5.550781 26.449219 6 27 6 Z "></path>
<path style=" fill:#8D6C9F;" d="M 36.300781 27.53125 C 36.550781 27.371094 36.71875 27.105469 36.753906 26.808594 C 36.792969 26.515625 36.695313 26.21875 36.488281 26 C 34.84375 24.121094 32.203125 23.460938 29.863281 24.339844 C 27.527344 25.21875 25.976563 27.457031 25.976563 29.953125 C 25.976563 32.453125 27.527344 34.691406 29.863281 35.570313 C 32.203125 36.449219 34.84375 35.789063 36.488281 33.910156 C 36.675781 33.695313 36.765625 33.414063 36.730469 33.128906 C 36.695313 32.847656 36.542969 32.59375 36.308594 32.429688 C 35.496094 31.871094 35.011719 30.945313 35.011719 29.960938 C 35.011719 28.972656 35.496094 28.050781 36.308594 27.488281 Z M 34.238281 33.300781 C 33.582031 33.757813 32.800781 34.003906 32 34 C 29.789063 34 28 32.210938 28 30 C 28 27.789063 29.789063 26 32 26 C 32.800781 25.996094 33.582031 26.242188 34.238281 26.699219 C 32.585938 28.585938 32.585938 31.402344 34.238281 33.289063 Z "></path>
<path style=" fill:#8D6C9F;" d="M 33 23 C 33.265625 23 33.519531 22.898438 33.710938 22.710938 L 34.710938 21.710938 C 35.050781 21.3125 35.027344 20.722656 34.65625 20.351563 C 34.289063 19.984375 33.695313 19.960938 33.300781 20.300781 L 32.300781 21.300781 C 32.019531 21.585938 31.9375 22.011719 32.089844 22.378906 C 32.242188 22.75 32.601563 22.996094 33 23 Z "></path>
<path style=" fill:#FFF8F8;" d="M 22.5 13 L 23.738281 15.261719 L 26 16.5 L 23.738281 17.738281 L 22.5 20 L 21.261719 17.738281 L 19 16.5 L 21.261719 15.261719 Z "></path>
<path style=" fill:#FFF8F8;" d="M 43.421875 19.160156 L 44.269531 20.730469 L 45.839844 21.578125 L 44.269531 22.441406 L 43.421875 24 L 42.558594 22.441406 L 41 21.578125 L 42.558594 20.730469 Z "></path>
<path style=" fill:#FFF8F8;" d="M 36.648438 38.699219 L 37.230469 39.769531 L 38.300781 40.351563 L 37.230469 40.941406 L 36.648438 42 L 36.058594 40.941406 L 35 40.351563 L 36.058594 39.769531 Z "></path>
</g>
</svg>