<!--?xml version="1.0" encoding="UTF-8"?-->
<svg xmlns="http://www.w3.org/2000/svg" xmlns:xlink="http://www.w3.org/1999/xlink" viewBox="0 0 64 64" version="1.1">
<g id="surface1">
<path style=" fill:#F9E3AE;" d="M 39.128906 1.25 L 17 14.628906 L 25 29 L 3.25 50.828125 L 4.5 59.421875 L 13.308594 60.691406 L 14.621094 58.820313 L 15.308594 54.511719 L 19.429688 53.761719 L 21 48.878906 L 26.308594 47.628906 L 35 39 L 48.71875 47 L 63 25 Z M 41.179688 23.609375 L 35.921875 14 L 40.671875 10.828125 L 52.921875 23.078125 L 49.828125 28 Z "></path>
<path style=" fill:#F6D397;" d="M 51.511719 12.578125 L 47.460938 16.628906 L 52.921875 23.078125 L 49.828125 28 L 41.179688 23.609375 L 41.578125 22.511719 L 5.390625 58.699219 L 4.5 59.421875 L 13.308594 60.691406 L 14.628906 58.808594 L 15.308594 54.5 L 19.429688 53.75 L 21 48.878906 L 26.308594 47.628906 L 35 39 L 48.71875 47 L 63 25 Z "></path>
<path style=" fill:#FAEFDE;" d="M 25.640625 34.191406 L 4.859375 55 L 3.089844 51.089844 L 25.089844 29.089844 L 26 30.351563 C 26.828125 31.546875 26.675781 33.167969 25.640625 34.191406 Z "></path>
<path style=" fill:#8D6C9F;" d="M 25.800781 15.460938 L 24.390625 16.871094 C 24.105469 17.113281 23.980469 17.5 24.066406 17.863281 C 24.15625 18.230469 24.441406 18.515625 24.804688 18.601563 C 25.171875 18.691406 25.554688 18.566406 25.800781 18.28125 L 27.210938 16.871094 C 27.550781 16.472656 27.527344 15.882813 27.15625 15.511719 C 26.789063 15.144531 26.195313 15.121094 25.800781 15.460938 Z "></path>
<path style=" fill:#8D6C9F;" d="M 29.328125 19 L 27.921875 20.410156 C 27.632813 20.65625 27.511719 21.039063 27.597656 21.402344 C 27.6875 21.769531 27.972656 22.054688 28.335938 22.140625 C 28.703125 22.230469 29.085938 22.105469 29.328125 21.820313 L 30.738281 20.410156 C 31.078125 20.011719 31.058594 19.421875 30.6875 19.050781 C 30.316406 18.683594 29.726563 18.660156 29.328125 19 Z "></path>
<path style=" fill:#8D6C9F;" d="M 32.871094 22.53125 L 31.460938 23.941406 C 31.175781 24.183594 31.050781 24.566406 31.136719 24.933594 C 31.226563 25.296875 31.511719 25.582031 31.875 25.671875 C 32.242188 25.757813 32.625 25.636719 32.871094 25.351563 L 34.28125 23.941406 C 34.621094 23.542969 34.597656 22.953125 34.226563 22.582031 C 33.859375 22.214844 33.265625 22.191406 32.871094 22.53125 Z "></path>
<path style=" fill:#8D6C9F;" d="M 36.398438 26.070313 L 35 27.480469 C 34.714844 27.722656 34.585938 28.105469 34.671875 28.472656 C 34.757813 28.835938 35.039063 29.125 35.40625 29.214844 C 35.769531 29.304688 36.152344 29.183594 36.398438 28.898438 L 37.808594 27.488281 C 38.148438 27.09375 38.125 26.5 37.757813 26.132813 C 37.386719 25.761719 36.796875 25.738281 36.398438 26.078125 Z "></path>
<path style=" fill:#8D6C9F;" d="M 39.941406 29.601563 L 38.53125 31 C 38.246094 31.246094 38.121094 31.628906 38.207031 31.992188 C 38.296875 32.359375 38.582031 32.644531 38.945313 32.730469 C 39.3125 32.820313 39.695313 32.695313 39.941406 32.410156 L 41.351563 31 C 41.691406 30.601563 41.667969 30.011719 41.296875 29.640625 C 40.929688 29.273438 40.335938 29.25 39.941406 29.589844 Z "></path>
<path style=" fill:#8D6C9F;" d="M 43.480469 33.140625 L 42.070313 34.550781 C 41.667969 34.9375 41.660156 35.578125 42.050781 35.980469 C 42.4375 36.378906 43.078125 36.390625 43.480469 36 L 44.890625 34.589844 C 45.230469 34.191406 45.207031 33.601563 44.835938 33.234375 C 44.46875 32.863281 43.875 32.839844 43.480469 33.179688 Z "></path>
<path style=" fill:#8D6C9F;" d="M 47 36.671875 L 45.601563 38.089844 C 45.296875 38.328125 45.160156 38.71875 45.242188 39.09375 C 45.328125 39.46875 45.617188 39.761719 45.992188 39.847656 C 46.367188 39.9375 46.757813 39.800781 47 39.5 L 48.410156 38.089844 C 48.800781 37.699219 48.804688 37.066406 48.414063 36.675781 C 48.027344 36.28125 47.390625 36.28125 47 36.671875 Z "></path>
<path style=" fill:#8D6C9F;" d="M 62.859375 22.820313 L 41.058594 1 C 40.0625 0.0234375 38.527344 -0.136719 37.351563 0.609375 L 17.738281 12.859375 C 16.34375 13.722656 15.898438 15.542969 16.738281 16.949219 L 23.410156 28.070313 C 23.644531 28.464844 23.582031 28.964844 23.261719 29.289063 L 2.828125 49.738281 C 2.375 50.195313 2.164063 50.84375 2.269531 51.480469 L 3.480469 58.75 C 3.617188 59.59375 4.277344 60.257813 5.121094 60.398438 L 12.390625 61.609375 L 12.71875 61.609375 C 13.253906 61.609375 13.765625 61.398438 14.140625 61.019531 L 15 60.199219 C 15.308594 59.894531 15.507813 59.5 15.570313 59.070313 L 16.121094 55.199219 L 19.519531 54.738281 C 20.417969 54.613281 21.121094 53.902344 21.230469 53 L 21.691406 49.589844 L 25.691406 48.960938 C 26.105469 48.894531 26.492188 48.699219 26.789063 48.398438 L 34.601563 40.589844 C 34.925781 40.265625 35.425781 40.203125 35.820313 40.441406 L 46.941406 47.109375 C 48.347656 47.949219 50.167969 47.503906 51.03125 46.109375 L 63.28125 26.53125 C 64.019531 25.347656 63.847656 23.808594 62.859375 22.820313 Z M 61.589844 25.46875 L 49.328125 45.078125 C 49.042969 45.542969 48.4375 45.6875 47.96875 45.410156 L 36.839844 38.738281 C 35.660156 38.027344 34.144531 38.214844 33.171875 39.191406 L 25.359375 47 L 21.359375 47.628906 C 20.488281 47.769531 19.808594 48.464844 19.691406 49.339844 L 19.230469 52.75 L 15.828125 53.210938 C 14.945313 53.332031 14.246094 54.023438 14.121094 54.910156 L 13.570313 58.78125 L 12.710938 59.640625 L 5.449219 58.429688 L 5 55.929688 C 5.089844 55.886719 5.175781 55.828125 5.25 55.761719 L 15.898438 45.160156 C 16.238281 44.761719 16.21875 44.171875 15.847656 43.800781 C 15.476563 43.433594 14.886719 43.410156 14.488281 43.75 L 4.648438 53.578125 L 4.25 51.160156 L 24.691406 30.710938 C 25.6875 29.730469 25.871094 28.191406 25.140625 27 L 18.46875 15.921875 C 18.191406 15.453125 18.339844 14.847656 18.800781 14.558594 L 38.410156 2.300781 C 38.804688 2.050781 39.320313 2.109375 39.648438 2.441406 L 61.441406 24.230469 C 61.769531 24.558594 61.828125 25.074219 61.578125 25.46875 Z "></path>
<path style=" fill:#8D6C9F;" d="M 41.921875 10.371094 C 41.261719 9.714844 40.238281 9.597656 39.449219 10.089844 L 36 12.25 C 35.0625 12.832031 34.769531 14.0625 35.351563 15 L 40.28125 22.671875 C 40.511719 23.03125 40.820313 23.335938 41.179688 23.570313 L 48.851563 28.5 C 49.171875 28.707031 49.546875 28.820313 49.929688 28.820313 C 50.078125 28.835938 50.222656 28.835938 50.371094 28.820313 C 50.890625 28.703125 51.347656 28.382813 51.628906 27.929688 L 53.800781 24.460938 C 54.285156 23.675781 54.171875 22.65625 53.519531 22 Z M 49.921875 26.859375 L 42.25 21.929688 C 42.128906 21.851563 42.027344 21.75 41.949219 21.628906 L 37 14 L 40.46875 11.828125 L 52.070313 23.429688 Z "></path>
<path style=" fill:#8D6C9F;" d="M 20.140625 38.089844 L 17.308594 40.921875 C 17.023438 41.164063 16.898438 41.546875 16.988281 41.914063 C 17.074219 42.277344 17.359375 42.5625 17.726563 42.652344 C 18.09375 42.738281 18.476563 42.617188 18.71875 42.328125 L 21.550781 39.5 C 21.890625 39.101563 21.867188 38.511719 21.496094 38.140625 C 21.128906 37.773438 20.535156 37.75 20.140625 38.089844 Z "></path>
</g>
</svg>