<svg xmlns="http://www.w3.org/2000/svg" xmlns:xlink="http://www.w3.org/1999/xlink" viewBox="0 0 64 64" version="1.1">
<g id="surface1">
<path style=" fill:#F9E3AE;" d="M 63 27.878906 C 63 41.550781 49.089844 52.671875 32 52.671875 C 29.851563 52.667969 27.707031 52.488281 25.589844 52.128906 C 24.351563 54.128906 20.910156 58.261719 13.589844 59.890625 L 13.378906 59.890625 C 13.039063 59.871094 12.730469 59.679688 12.5625 59.382813 C 12.394531 59.085938 12.390625 58.722656 12.550781 58.421875 C 14.242188 55.480469 15.238281 52.195313 15.460938 48.808594 C 6.378906 44.269531 1 36.46875 1 27.878906 C 1 14.210938 14.910156 3.089844 32 3.089844 C 49.089844 3.089844 63 14.210938 63 27.878906 Z "></path>
<path style=" fill:#F6D397;" d="M 1.640625 32.949219 C 3.308594 39.480469 8.199219 45.191406 15.441406 48.839844 C 15.214844 52.222656 14.222656 55.511719 12.53125 58.449219 C 12.367188 58.75 12.371094 59.113281 12.542969 59.414063 C 12.710938 59.710938 13.019531 59.902344 13.359375 59.921875 L 13.570313 59.921875 C 20.898438 58.289063 24.339844 54.109375 25.570313 52.160156 C 27.6875 52.515625 29.832031 52.699219 31.980469 52.699219 C 46.871094 52.699219 59.339844 44.261719 62.308594 33.050781 C 62.621094 31.851563 62.355469 30.574219 61.597656 29.597656 C 60.839844 28.621094 59.667969 28.046875 58.429688 28.050781 L 5.539063 28.050781 C 4.320313 28.050781 3.167969 28.605469 2.40625 29.558594 C 1.648438 30.511719 1.367188 31.761719 1.640625 32.949219 Z "></path>
<path style=" fill:#85CBF8;" d="M 56 28 C 56 17.507813 45.253906 9 32 9 C 18.746094 9 8 17.507813 8 28 C 8 38.492188 18.746094 47 32 47 C 45.253906 47 56 38.492188 56 28 Z "></path>
<path style=" fill:#8D6C9F;" d="M 32 2.140625 C 14.351563 2.140625 0 13.621094 0 27.730469 C 0 36.601563 5.558594 44.648438 14.910156 49.371094 C 14.679688 52.863281 13.65625 56.257813 11.910156 59.289063 C 11.726563 59.597656 11.722656 59.984375 11.902344 60.292969 C 12.078125 60.605469 12.410156 60.800781 12.769531 60.800781 L 12.988281 60.800781 C 20.558594 59.121094 24.109375 54.800781 25.390625 52.800781 C 27.578125 53.167969 29.792969 53.351563 32.011719 53.351563 C 49.660156 53.351563 64.011719 41.871094 64.011719 27.761719 C 64.011719 13.648438 49.648438 2.140625 32 2.140625 Z M 32 51.308594 C 29.671875 51.308594 27.347656 51.097656 25.058594 50.671875 C 24.636719 50.589844 24.207031 50.792969 24 51.171875 C 23.328125 52.398438 20.800781 56.230469 14.71875 58.21875 C 16.046875 55.246094 16.804688 52.050781 16.949219 48.800781 C 16.96875 48.398438 16.742188 48.023438 16.378906 47.851563 C 7.378906 43.53125 2 36 2 27.730469 C 2 14.730469 15.460938 4.140625 32 4.140625 C 48.539063 4.140625 62 14.71875 62 27.730469 C 62 40.738281 48.539063 51.308594 32 51.308594 Z "></path>
<path style=" fill:#8D6C9F;" d="M 31.710938 43.660156 C 31.160156 43.707031 30.753906 44.191406 30.800781 44.738281 L 30.96875 46.738281 C 31.015625 47.257813 31.449219 47.652344 31.96875 47.648438 L 32.058594 47.648438 C 32.332031 47.636719 32.585938 47.511719 32.761719 47.304688 C 32.9375 47.097656 33.023438 46.832031 33 46.558594 L 32.828125 44.558594 C 32.804688 44.289063 32.671875 44.042969 32.460938 43.871094 C 32.25 43.703125 31.980469 43.625 31.710938 43.660156 Z "></path>
<path style=" fill:#8D6C9F;" d="M 12.199219 34.949219 L 10.558594 36.101563 C 10.105469 36.417969 9.996094 37.042969 10.316406 37.496094 C 10.632813 37.949219 11.257813 38.058594 11.710938 37.738281 L 13.351563 36.589844 C 13.804688 36.273438 13.914063 35.648438 13.59375 35.195313 C 13.277344 34.742188 12.652344 34.632813 12.199219 34.949219 Z "></path>
<path style=" fill:#8D6C9F;" d="M 15.710938 39.171875 L 14.421875 40.699219 C 14.0625 41.121094 14.113281 41.757813 14.535156 42.113281 C 14.957031 42.472656 15.589844 42.421875 15.949219 42 L 17.238281 40.46875 C 17.597656 40.046875 17.542969 39.417969 17.121094 39.058594 C 16.699219 38.703125 16.066406 38.757813 15.710938 39.179688 Z "></path>
<path style=" fill:#8D6C9F;" d="M 21.519531 41.851563 C 21.019531 41.617188 20.425781 41.832031 20.191406 42.328125 L 19.339844 44.140625 C 19.179688 44.464844 19.207031 44.851563 19.414063 45.148438 C 19.617188 45.445313 19.96875 45.609375 20.328125 45.578125 C 20.6875 45.546875 21.003906 45.320313 21.148438 44.988281 L 22 43.179688 C 22.234375 42.679688 22.019531 42.085938 21.519531 41.851563 Z "></path>
<path style=" fill:#8D6C9F;" d="M 26.488281 43.429688 C 25.945313 43.332031 25.425781 43.695313 25.328125 44.238281 L 24.980469 46.238281 C 24.882813 46.785156 25.246094 47.304688 25.789063 47.398438 L 25.96875 47.398438 C 26.460938 47.40625 26.886719 47.054688 26.96875 46.570313 L 27.320313 44.570313 C 27.402344 44.027344 27.03125 43.515625 26.488281 43.429688 Z "></path>
<path style=" fill:#8D6C9F;" d="M 9 28 C 9 18 19.339844 10 32 10 C 35.984375 9.980469 39.925781 10.816406 43.558594 12.449219 C 44.0625 12.679688 44.65625 12.457031 44.886719 11.953125 C 45.113281 11.453125 44.894531 10.859375 44.390625 10.628906 C 40.496094 8.878906 36.269531 7.980469 32 8 C 18.238281 8 7 17 7 28 C 7 29.347656 7.167969 30.691406 7.5 32 C 7.613281 32.457031 8.03125 32.773438 8.5 32.761719 C 8.582031 32.769531 8.667969 32.769531 8.75 32.761719 C 9.285156 32.628906 9.613281 32.085938 9.480469 31.550781 C 9.171875 30.390625 9.011719 29.199219 9 28 Z "></path>
<path style=" fill:#8D6C9F;" d="M 54.46875 19.261719 C 54.160156 18.867188 53.609375 18.765625 53.179688 19.015625 C 52.75 19.269531 52.570313 19.796875 52.761719 20.261719 C 54.214844 22.582031 54.988281 25.261719 55 28 C 55 36.191406 47.941406 43.359375 37.828125 45.421875 C 37.277344 45.476563 36.875 45.96875 36.929688 46.519531 C 36.984375 47.074219 37.476563 47.476563 38.03125 47.421875 L 38.230469 47.421875 C 49.238281 45.101563 57 37.128906 57 28 C 56.984375 24.910156 56.109375 21.882813 54.46875 19.261719 Z "></path>
<path style=" fill:#8D6C9F;" d="M 50.101563 16.910156 C 50.488281 17.300781 51.121094 17.304688 51.515625 16.914063 C 51.90625 16.527344 51.910156 15.890625 51.519531 15.5 C 50.675781 14.652344 49.765625 13.875 48.800781 13.171875 C 48.351563 12.84375 47.726563 12.941406 47.398438 13.390625 C 47.074219 13.835938 47.171875 14.464844 47.621094 14.789063 C 48.5 15.429688 49.332031 16.140625 50.101563 16.910156 Z "></path>
<path style=" fill:#FAEFDE;" d="M 30.839844 34.289063 C 30.976563 34.699219 31.359375 34.972656 31.789063 34.96875 C 32.113281 34.972656 32.414063 34.816406 32.605469 34.554688 C 32.792969 34.292969 32.84375 33.957031 32.738281 33.648438 L 27.339844 17.648438 C 27.199219 17.246094 26.820313 16.976563 26.394531 16.976563 C 25.96875 16.976563 25.589844 17.246094 25.449219 17.648438 L 20.050781 33.648438 C 19.90625 33.996094 19.96875 34.390625 20.207031 34.675781 C 20.449219 34.964844 20.828125 35.089844 21.191406 35.011719 C 21.554688 34.929688 21.84375 34.652344 21.941406 34.289063 L 23.75 28.941406 C 23.800781 28.945313 23.851563 28.945313 23.898438 28.941406 L 28.898438 28.941406 C 28.949219 28.945313 29 28.945313 29.050781 28.941406 Z M 24.410156 27 L 26.410156 21.128906 L 28.410156 27 Z "></path>
<path style=" fill:#FAEFDE;" d="M 45 39 C 45.550781 39 46 38.550781 46 38 C 46 37.449219 45.550781 37 45 37 C 43.523438 36.996094 42.082031 36.523438 40.890625 35.648438 C 42.878906 33.601563 43.996094 30.855469 44 28 L 44 27 L 47 27 C 47.550781 27 48 26.550781 48 26 C 48 25.449219 47.550781 25 47 25 L 40 25 L 40 22 C 40 21.449219 39.550781 21 39 21 C 38.449219 21 38 21.449219 38 22 L 38 25 L 33 25 C 32.449219 25 32 25.449219 32 26 C 32 26.550781 32.449219 27 33 27 L 42 27 L 42 28 C 42 30.335938 41.085938 32.582031 39.460938 34.261719 C 38.515625 33.039063 38.003906 31.542969 38 30 C 38 29.449219 37.550781 29 37 29 C 36.449219 29 36 29.449219 36 30 C 36.007813 31.992188 36.675781 33.925781 37.898438 35.5 C 36.449219 36.46875 34.746094 36.988281 33 37 C 32.449219 37 32 37.449219 32 38 C 32 38.550781 32.449219 39 33 39 C 35.265625 39.003906 37.476563 38.308594 39.328125 37 C 40.933594 38.296875 42.9375 39.003906 45 39 Z "></path>
</g>
</svg>