<svg xmlns="http://www.w3.org/2000/svg" xmlns:xlink="http://www.w3.org/1999/xlink" version="1.1" id="Layer_1" x="0px" y="0px" viewBox="0 0 64 64" style="enable-background:new 0 0 64 64;" xml:space="preserve">
<path style="fill:#F9E3AE;" d="M52.63,8.79l-1.42-1.42c-3.9-3.9-10.23-3.9-14.14,0l-5.66,5.66c-3.9,3.9-3.9,10.24,0,14.14l1.42,1.42  c3.9,3.9,10.24,3.9,14.14,0l5.66-5.66C56.53,19.02,56.53,12.69,52.63,8.79z M48.39,18L42,24.39c-0.25,0.25-0.54,0.45-0.86,0.61  c0.38-0.67-1.14-0.21-1.14-1c0-1.21,1.25-3.55,0.41-4.41C39.55,18.75,37.21,19,36,19c-0.79,0-0.33-0.52-1-0.14  c0.15-0.32,0.36-0.6,0.61-0.86L42,11.61c1.32-1.32,3.46-1.32,4.78,0l1.61,1.61c0.63,0.63,0.99,1.49,0.99,2.39S49.02,17.36,48.39,18z  "></path>
<path style="fill:#F9E3AE;" d="M28.59,32.83l-1.42-1.42c-3.9-3.9-10.24-3.9-14.14,0l-5.66,5.66c-3.9,3.91-3.9,10.24,0,14.14  l1.42,1.42c3.9,3.9,10.23,3.9,14.14,0l5.66-5.66C32.49,43.07,32.49,36.73,28.59,32.83z M24.96,41.98l-6.94,6.94  c-1.44,1.44-3.77,1.44-5.2,0l-1.74-1.74C10.39,46.5,10,45.56,10,44.58c0-0.98,0.39-1.9,1.08-2.6l6.94-6.94  c0.27-0.27,0.59-0.49,0.93-0.66C18.53,35.1,19,35.14,19,36c0,1.31-0.17,3.32,0.75,4.25C20.68,41.17,21.69,41,23,41  c0.86,0,1.9,0.47,2.62,0.05C25.46,41.39,25.23,41.7,24.96,41.98z"></path>
<path style="fill:#F9E3AE;" d="M51.21,7.37c-3.9-3.9-10.23-3.9-14.14,0l-5.66,5.66c-3.9,3.9-3.9,10.24,0,14.14l0.71,0.71l8.29-8.29  C39.55,18.75,37.21,19,36,19c-0.79,0-0.33-0.52-1-0.14c0.15-0.32,0.36-0.6,0.61-0.86L42,11.61c1.32-1.32,3.46-1.32,4.78,0l0.81,0.81  l4.33-4.34L51.21,7.37z"></path>
<path style="fill:#F9E3AE;" d="M27.17,31.41c-3.9-3.9-10.24-3.9-14.14,0l-5.66,5.66c-3.9,3.91-3.9,10.24,0,14.14l0.71,0.71  l3.87-3.87l-0.87-0.87C10.39,46.5,10,45.56,10,44.58c0-0.98,0.39-1.9,1.08-2.6l6.94-6.94c0.27-0.27,0.59-0.49,0.93-0.66  C18.53,35.1,19,35.14,19,36c0,1.31-0.17,3.32,0.75,4.25l8.13-8.13L27.17,31.41z"></path>
<path style="fill:#F6D397;" d="M52.63,22.93l-5.66,5.66c-3.9,3.9-10.24,3.9-14.14,0l-0.71-0.71l8.29-8.29  C41.25,20.45,40,22.79,40,24c0,0.79,1.52,0.33,1.14,1c0.32-0.16,0.61-0.36,0.86-0.61L48.39,18c0.63-0.64,0.99-1.49,0.99-2.39  s-0.36-1.76-0.99-2.39l-0.8-0.8l4.33-4.34l0.71,0.71C56.53,12.69,56.53,19.02,52.63,22.93z"></path>
<path style="fill:#F6D397;" d="M28.59,46.97l-5.66,5.66c-3.91,3.9-10.24,3.9-14.14,0l-0.71-0.71l3.87-3.87l0.87,0.87  c1.43,1.44,3.76,1.44,5.2,0l6.94-6.94c0.27-0.28,0.5-0.59,0.66-0.93C24.9,41.47,23.86,41,23,41c-1.31,0-2.32,0.17-3.25-0.75  l8.13-8.13l0.71,0.71C32.49,36.73,32.49,43.07,28.59,46.97z"></path>
<path style="fill:#F9E3AE;" d="M20.101,39.899L20.101,39.899c-1.172-1.172-1.172-3.071,0-4.243l15.556-15.556  c1.172-1.172,3.071-1.172,4.243,0l0,0c1.172,1.172,1.172,3.071,0,4.243L24.343,39.899C23.172,41.071,21.272,41.071,20.101,39.899z"></path>
<path style="fill:#F6D397;" d="M32.12,32.12l-7.78,7.78c-1.17,1.17-3.07,1.17-4.24,0c-1.17-1.17-1.17-3.07,0-4.24l7.78-7.78  L32.12,32.12z"></path>
<g>
	<path style="fill:#8D6C9F;" d="M53.33,8.08l-1.41-1.41c-4.29-4.29-11.27-4.29-15.56,0l-5.65,5.65c-3.55,3.55-4.16,8.95-1.83,13.14   l-3.42,3.42c-4.19-2.33-9.59-1.72-13.14,1.83l-5.65,5.65c-2.08,2.08-3.23,4.84-3.23,7.78c0,2.94,1.15,5.7,3.23,7.78l1.41,1.41   c2.14,2.15,4.96,3.22,7.78,3.22c2.81,0,5.63-1.07,7.78-3.22l5.65-5.65c3.55-3.55,4.16-8.95,1.83-13.14l3.42-3.42   c1.66,0.93,3.51,1.39,5.36,1.39c2.82,0,5.63-1.07,7.78-3.22l5.65-5.65c2.08-2.08,3.23-4.84,3.23-7.78S55.41,10.16,53.33,8.08z    M30.51,39.9c0,2.4-0.93,4.66-2.63,6.36l-5.66,5.66c-3.51,3.51-9.22,3.51-12.73,0l-1.41-1.41c-1.7-1.7-2.64-3.96-2.64-6.37   c0-2.4,0.94-4.66,2.64-6.36l5.66-5.66c1.7-1.7,3.96-2.63,6.36-2.63c1.36,0,2.68,0.3,3.87,0.88l-3.17,3.17   c-0.23-0.03-0.46-0.05-0.7-0.05c-1.34,0-2.59,0.52-3.53,1.46l-5.66,5.66c-0.95,0.94-1.47,2.2-1.47,3.53c0,1.34,0.52,2.59,1.47,3.54   l1.41,1.41c0.98,0.98,2.26,1.46,3.54,1.46c1.28,0,2.56-0.48,3.53-1.46l5.66-5.65c0.94-0.95,1.46-2.2,1.46-3.54   c0-0.24-0.02-0.47-0.05-0.7l3.17-3.17C30.21,37.22,30.51,38.54,30.51,39.9z M19.39,40.61c0.76,0.75,1.76,1.17,2.83,1.17   c0.7,0,1.37-0.18,1.96-0.52c-0.13,0.28-0.32,0.53-0.54,0.76l-5.66,5.66c-1.17,1.17-3.07,1.17-4.24,0l-1.42-1.42   c-0.56-0.56-0.88-1.32-0.88-2.12c0-0.8,0.32-1.55,0.88-2.12l5.66-5.66c0.22-0.22,0.48-0.4,0.76-0.54   c-0.34,0.59-0.52,1.26-0.52,1.96C18.22,38.85,18.64,39.85,19.39,40.61z M29.97,32.86L29.97,32.86l-1.42,1.42v0l-2.87,2.87v0   l-1.46,1.46v0l-0.58,0.58c-0.38,0.38-0.9,0.57-1.42,0.57c-0.52,0-1.04-0.19-1.41-0.57c-0.38-0.38-0.59-0.88-0.59-1.41   c0-0.54,0.21-1.04,0.59-1.42l0.58-0.58l1.46-1.46l2.87-2.87l1.42-1.42l2.89-2.89v0l1.42-1.42l2.87-2.87l1.46-1.46v0l0.58-0.58   c0.38-0.38,0.88-0.59,1.42-0.59c0.53,0,1.03,0.21,1.41,0.59s0.59,0.88,0.59,1.41c0,0.54-0.21,1.04-0.59,1.42l-0.58,0.58h0   l-1.46,1.46l-2.87,2.87l-1.41,1.41h0L29.97,32.86z M40.61,19.39c-0.76-0.75-1.76-1.17-2.83-1.17c-0.7,0-1.37,0.18-1.96,0.52   c0.13-0.28,0.32-0.53,0.54-0.76l5.66-5.66c1.17-1.17,3.07-1.17,4.24,0l1.42,1.42c0.56,0.56,0.88,1.32,0.88,2.12   s-0.32,1.55-0.88,2.12l-5.66,5.66c-0.22,0.22-0.48,0.4-0.76,0.54c0.34-0.59,0.52-1.26,0.52-1.96   C41.78,21.15,41.36,20.15,40.61,19.39z M51.92,22.22l-5.66,5.66c-1.7,1.7-3.96,2.63-6.36,2.63c-1.36,0-2.68-0.3-3.87-0.88   l3.17-3.17c0.23,0.03,0.46,0.05,0.7,0.05c1.34,0,2.59-0.52,3.53-1.46l5.66-5.66c0.95-0.94,1.47-2.2,1.47-3.53   c0-1.34-0.52-2.59-1.47-3.54l-1.41-1.41c-1.95-1.95-5.13-1.95-7.07,0l-5.66,5.65c-0.94,0.95-1.46,2.2-1.46,3.54   c0,0.24,0.02,0.47,0.05,0.7l-3.17,3.17c-0.58-1.19-0.88-2.51-0.88-3.87c0-2.4,0.93-4.66,2.63-6.36l5.66-5.66   c3.51-3.51,9.22-3.51,12.73,0l1.41,1.41c1.7,1.7,2.64,3.96,2.64,6.37C54.56,18.26,53.62,20.52,51.92,22.22z"></path>
	<path style="fill:#8D6C9F;" d="M16.354,17.562c0.195,0.195,0.451,0.293,0.707,0.293s0.512-0.098,0.707-0.293   c0.391-0.391,0.391-1.023,0-1.414l-1.414-1.414c-0.391-0.391-1.023-0.391-1.414,0s-0.391,1.023,0,1.414L16.354,17.562z"></path>
	<path style="fill:#8D6C9F;" d="M11.968,20.449l1.732,1c0.157,0.091,0.329,0.134,0.499,0.134c0.346,0,0.682-0.179,0.867-0.5   c0.276-0.479,0.112-1.09-0.366-1.366l-1.732-1c-0.479-0.276-1.09-0.113-1.366,0.366C11.325,19.561,11.489,20.172,11.968,20.449z"></path>
	<path style="fill:#8D6C9F;" d="M24.164,12.455c0.12,0.447,0.523,0.741,0.965,0.741c0.086,0,0.174-0.011,0.26-0.035   c0.534-0.143,0.851-0.691,0.707-1.225l-0.519-1.932c-0.144-0.534-0.696-0.848-1.225-0.707c-0.534,0.143-0.851,0.691-0.707,1.225   L24.164,12.455z"></path>
	<path style="fill:#8D6C9F;" d="M10.211,25.372l1.932,0.518c0.087,0.023,0.174,0.035,0.26,0.035c0.441,0,0.846-0.295,0.965-0.742   c0.143-0.533-0.174-1.082-0.707-1.225l-1.932-0.518c-0.531-0.141-1.082,0.173-1.225,0.707C9.361,24.681,9.678,25.229,10.211,25.372   z"></path>
	<path style="fill:#8D6C9F;" d="M19.922,14.494c0.186,0.321,0.521,0.5,0.867,0.5c0.17,0,0.342-0.043,0.499-0.134   c0.479-0.276,0.643-0.888,0.366-1.366l-1-1.732c-0.277-0.479-0.89-0.643-1.366-0.366c-0.479,0.276-0.643,0.888-0.366,1.366   L19.922,14.494z"></path>
	<path style="fill:#8D6C9F;" d="M45.246,43.626c-0.391-0.391-1.023-0.391-1.414,0s-0.391,1.023,0,1.414l1.414,1.414   c0.195,0.195,0.451,0.293,0.707,0.293s0.512-0.098,0.707-0.293c0.391-0.391,0.391-1.023,0-1.414L45.246,43.626z"></path>
	<path style="fill:#8D6C9F;" d="M49.632,40.739l-1.732-1c-0.478-0.277-1.09-0.113-1.366,0.366c-0.276,0.479-0.112,1.09,0.366,1.366   l1.732,1c0.157,0.091,0.329,0.134,0.499,0.134c0.346,0,0.682-0.179,0.867-0.5C50.274,41.626,50.11,41.015,49.632,40.739z"></path>
	<path style="fill:#8D6C9F;" d="M37.436,48.733c-0.143-0.534-0.689-0.85-1.225-0.707c-0.533,0.143-0.85,0.691-0.707,1.225   l0.518,1.932c0.119,0.447,0.523,0.742,0.965,0.742c0.086,0,0.173-0.011,0.26-0.035c0.533-0.143,0.85-0.691,0.707-1.225   L37.436,48.733z"></path>
	<path style="fill:#8D6C9F;" d="M51.389,35.816l-1.933-0.518c-0.532-0.142-1.081,0.173-1.225,0.707   c-0.144,0.533,0.174,1.082,0.707,1.225l1.933,0.518c0.087,0.023,0.174,0.035,0.26,0.035c0.441,0,0.845-0.295,0.965-0.742   C52.239,36.507,51.922,35.959,51.389,35.816z"></path>
	<path style="fill:#8D6C9F;" d="M41.677,46.694c-0.277-0.479-0.89-0.643-1.366-0.366c-0.479,0.276-0.643,0.888-0.366,1.366l1,1.732   c0.186,0.321,0.521,0.5,0.867,0.5c0.17,0,0.342-0.043,0.499-0.134c0.479-0.276,0.643-0.888,0.366-1.366L41.677,46.694z"></path>
</g>
</svg>