<svg xmlns="http://www.w3.org/2000/svg" viewBox="0 0 50 50">
    <path style="line-height:normal;text-indent:0;text-align:start;text-decoration-line:none;text-decoration-style:solid;text-decoration-color:#000;text-transform:none;block-progression:tb;isolation:auto;mix-blend-mode:normal" d="M 3 8 A 1.0001 1.0001 0 0 0 2 9 L 2 38 L 1 38 A 1.0001 1.0001 0 0 0 0 39 L 0 41 C 0 42.45797 0.70876816 43.570962 1.5507812 44.183594 C 2.3927944 44.796225 3.2884028 45 4 45 L 46 45 C 47.080199 45 48.110329 44.821981 48.892578 44.117188 C 49.674828 43.412394 50 42.319379 50 41 L 50 39 A 1.0001 1.0001 0 0 0 49 38 L 48 38 L 48 9 A 1.0001 1.0001 0 0 0 47 8 L 3 8 z M 27.408203 18 C 27.508203 18.8 27.208594 19.599609 26.808594 20.099609 C 26.308594 20.699609 25.608594 21.099609 24.808594 21.099609 C 24.608594 20.399609 24.908203 19.699609 25.408203 19.099609 C 25.908203 18.499609 26.708203 18.1 27.408203 18 z M 22.708984 21.099609 C 23.708984 21.099609 24.408984 21.699219 25.208984 21.699219 C 26.008984 21.699219 26.508984 21.099609 27.708984 21.099609 C 28.608984 21.099609 29.508984 21.600391 30.208984 22.400391 C 28.008984 23.600391 28.409375 26.699609 30.609375 27.599609 C 30.209375 28.299609 30.008984 28.599219 29.708984 29.199219 C 29.108984 29.999219 28.308203 31.099609 27.408203 31.099609 C 26.508203 31.099609 26.308984 30.499609 25.208984 30.599609 C 24.008984 30.599609 23.808203 31.199609 22.908203 31.099609 C 21.908203 31.099609 21.208984 30.200781 20.708984 29.300781 C 19.208984 27.000781 19.009766 24.199219 20.009766 22.699219 C 20.709766 21.699219 21.708984 21.099609 22.708984 21.099609 z M 2 40 L 18 40 A 1.0001 1.0001 0 0 0 19 41 L 31 41 A 1.0001 1.0001 0 0 0 32 40 L 47 40 L 48 40 L 48 41 C 48 42.013621 47.789938 42.420856 47.554688 42.632812 C 47.319437 42.844769 46.849801 43 46 43 L 4 43 C 3.7515972 43 3.1465025 42.870525 2.7285156 42.566406 C 2.3105288 42.262288 2 41.87503 2 41 L 2 40 z" font-weight="400" font-family="sans-serif" white-space="normal" overflow="visible"></path>
</svg>