<svg xmlns="http://www.w3.org/2000/svg" xmlns:xlink="http://www.w3.org/1999/xlink" viewBox="0 0 64 64" version="1.1">
<g id="surface1">
<path style=" fill:#ACB7D0;" d="M 45 59 L 19 59 L 22 55 L 42 55 Z "></path>
<path style=" fill:#A0AECB;" d="M 27 49 L 37 49 L 37 55 L 27 55 Z "></path>
<path style=" fill:#C2CDE7;" d="M 3 9 L 61 9 C 62.105469 9 63 9.894531 63 11 L 63 47 C 63 48.105469 62.105469 49 61 49 L 3 49 C 1.894531 49 1 48.105469 1 47 L 1 11 C 1 9.894531 1.894531 9 3 9 Z "></path>
<path style=" fill:#CFD9ED;" d="M 1 43 L 63 43 L 63 46 L 1 46 Z "></path>
<path style=" fill:#C5E4FA;" d="M 1 13 L 63 13 L 63 43 L 1 43 Z "></path>
<path style=" fill:#E3F2FF;" d="M 45.929688 43 L 62 26.929688 L 62 13 L 59.859375 13 L 29.859375 43 Z "></path>
<path style=" fill:#E3F2FF;" d="M 19.140625 43 L 25.570313 43 L 55.570313 13 L 49.140625 13 Z "></path>
<path style=" fill:#E3F2FF;" d="M 14.859375 43 L 44.859375 13 L 39.5 13 L 9.5 43 Z "></path>
<path style=" fill:#FFF8F8;" d="M 18.5 18 L 19.738281 20.261719 L 22 21.5 L 19.738281 22.738281 L 18.5 25 L 17.261719 22.738281 L 15 21.5 L 17.261719 20.261719 Z "></path>
<path style=" fill:#FFF8F8;" d="M 49.421875 17.160156 L 50.269531 18.730469 L 51.839844 19.578125 L 50.269531 20.441406 L 49.421875 22 L 48.558594 20.441406 L 47 19.578125 L 48.558594 18.730469 Z "></path>
<path style=" fill:#FFF8F8;" d="M 32.648438 34.699219 L 33.230469 35.769531 L 34.300781 36.351563 L 33.230469 36.941406 L 32.648438 38 L 32.058594 36.941406 L 31 36.351563 L 32.058594 35.769531 Z "></path>
<path style=" fill:#8D6C9F;" d="M 61 8 L 3 8 C 1.34375 8 0 9.34375 0 11 L 0 47 C 0 48.65625 1.34375 50 3 50 L 26 50 L 26 54 L 23.660156 54 C 22.332031 53.996094 21.058594 54.523438 20.121094 55.460938 L 17.289063 58.289063 C 17 58.574219 16.914063 59.007813 17.070313 59.382813 C 17.226563 59.757813 17.59375 60.003906 18 60 L 46 60 C 46.40625 60.003906 46.773438 59.757813 46.929688 59.382813 C 47.085938 59.007813 47 58.574219 46.710938 58.289063 L 43.878906 55.460938 C 42.941406 54.523438 41.667969 53.996094 40.339844 54 L 38 54 L 38 50 L 61 50 C 62.65625 50 64 48.65625 64 47 L 64 11 C 64 9.34375 62.65625 8 61 8 Z M 40.339844 56 C 41.136719 56 41.898438 56.316406 42.460938 56.878906 L 43.589844 58 L 20.410156 58 L 21.53125 56.878906 C 22.09375 56.316406 22.859375 55.996094 23.660156 56 Z M 36 54 L 28 54 L 28 50 L 36 50 Z M 61 48 L 3 48 C 2.449219 48 2 47.550781 2 47 L 2 44 L 39.078125 44 C 39.632813 44 40.078125 43.550781 40.078125 43 C 40.078125 42.449219 39.632813 42 39.078125 42 L 2 42 L 2 11 C 2 10.449219 2.449219 10 3 10 L 61 10 C 61.550781 10 62 10.449219 62 11 L 62 42 L 59 42 C 58.449219 42 58 42.449219 58 43 C 58 43.550781 58.449219 44 59 44 L 62 44 L 62 47 C 62 47.550781 61.550781 48 61 48 Z "></path>
<path style=" fill:#FC6D74;" d="M 44 41 C 43.449219 41 43 41.449219 43 42 L 43 44 C 43 44.550781 43.449219 45 44 45 C 44.550781 45 45 44.550781 45 44 L 45 42 C 45 41.449219 44.550781 41 44 41 Z "></path>
<path style=" fill:#34C695;" d="M 49 41 C 48.449219 41 48 41.449219 48 42 L 48 44 C 48 44.550781 48.449219 45 49 45 C 49.550781 45 50 44.550781 50 44 L 50 42 C 50 41.449219 49.550781 41 49 41 Z "></path>
<path style=" fill:#5EB0DD;" d="M 54 41 C 53.449219 41 53 41.449219 53 42 L 53 44 C 53 44.550781 53.449219 45 54 45 C 54.550781 45 55 44.550781 55 44 L 55 42 C 55 41.449219 54.550781 41 54 41 Z "></path>
<path style=" fill:#8D6C9F;" d="M 60 13 C 60 12.449219 59.550781 12 59 12 L 55 12 C 54.449219 12 54 12.449219 54 13 C 54 13.550781 54.449219 14 55 14 L 59 14 C 59.550781 14 60 13.550781 60 13 Z "></path>
<path style=" fill:#8D6C9F;" d="M 51 12 L 5 12 C 4.449219 12 4 12.449219 4 13 C 4 13.550781 4.449219 14 5 14 L 51 14 C 51.550781 14 52 13.550781 52 13 C 52 12.449219 51.550781 12 51 12 Z "></path>
</g>
</svg>