<svg xmlns="http://www.w3.org/2000/svg" xmlns:xlink="http://www.w3.org/1999/xlink" viewBox="0 0 64 64" version="1.1">
<g id="surface1">
<path style=" fill:#5DBC9D;" d="M 63 9 L 63 57 C 63 58.101563 62.101563 59 61 59 L 3 59 C 2.589844 59 2.210938 58.878906 1.890625 58.671875 C 1.359375 58.300781 1 57.691406 1 57 L 1 9 C 1 7.898438 1.898438 7 3 7 L 61 7 C 61.601563 7 62.140625 7.269531 62.5 7.691406 C 62.820313 8.039063 63 8.5 63 9 Z "></path>
<path style=" fill:#72CAAF;" d="M 58.910156 7 L 6.921875 59 L 1.558594 59 L 1.890625 58.671875 L 53.550781 7 Z "></path>
<path style=" fill:#FFEB9B;" d="M 24 11 L 18 11 C 17.449219 11 17 10.550781 17 10 L 17 4 C 17 3.449219 17.449219 3 18 3 L 24 3 C 24.550781 3 25 3.449219 25 4 L 25 10 C 25 10.550781 24.550781 11 24 11 Z "></path>
<path style=" fill:#FFEB9B;" d="M 32 11 L 30 11 C 29.449219 11 29 10.550781 29 10 L 29 4 C 29 3.449219 29.449219 3 30 3 L 32 3 C 32.550781 3 33 3.449219 33 4 L 33 10 C 33 10.550781 32.550781 11 32 11 Z "></path>
<path style=" fill:#85CBF8;" d="M 52 11 L 38 11 C 37.449219 11 37 10.550781 37 10 L 37 4 C 37 3.449219 37.449219 3 38 3 L 52 3 C 52.550781 3 53 3.449219 53 4 L 53 10 C 53 10.550781 52.550781 11 52 11 Z "></path>
<path style=" fill:#72CAAF;" d="M 63 9 L 63 13.621094 L 17.621094 59 L 11.191406 59 L 62.5 7.691406 C 62.820313 8.039063 63 8.5 63 9 Z "></path>
<path style=" fill:#72CAAF;" d="M 63 17.898438 L 63 33.960938 L 37.949219 59 L 21.878906 59 Z "></path>
<path style=" fill:#D8E5F5;" d="M 37 19 L 53 19 L 53 35 L 37 35 Z "></path>
<path style=" fill:#85CBF8;" d="M 9 19 L 17 19 L 17 35 L 9 35 Z "></path>
<path style=" fill:#8B8E98;" d="M 41 23 L 49 23 L 49 31 L 41 31 Z "></path>
<path style=" fill:#ED7899;" d="M 17 47 C 17 49.210938 15.210938 51 13 51 C 10.789063 51 9 49.210938 9 47 C 9 44.789063 10.789063 43 13 43 C 15.210938 43 17 44.789063 17 47 Z "></path>
<path style=" fill:#986CA1;" d="M 61 6 L 54 6 L 54 4 C 54 2.898438 53.101563 2 52 2 L 38 2 C 36.898438 2 36 2.898438 36 4 L 36 6 L 34 6 L 34 4 C 34 2.898438 33.101563 2 32 2 L 30 2 C 28.898438 2 28 2.898438 28 4 L 28 6 L 26 6 L 26 4 C 26 2.898438 25.101563 2 24 2 L 18 2 C 16.898438 2 16 2.898438 16 4 L 16 6 L 3 6 C 1.351563 6 0 7.351563 0 9 L 0 57 C 0 58.648438 1.351563 60 3 60 L 61 60 C 62.648438 60 64 58.648438 64 57 L 64 9 C 64 7.351563 62.648438 6 61 6 Z M 38 4 L 52 4 L 52 10 L 38 10 Z M 30 4 L 32 4 L 32 10 L 30 10 Z M 18 4 L 24 4 L 24 10 L 18 10 Z M 62 57 C 62 57.550781 61.550781 58 61 58 L 3 58 C 2.449219 58 2 57.550781 2 57 L 2 9 C 2 8.449219 2.449219 8 3 8 L 16 8 L 16 10 C 16 11.101563 16.898438 12 18 12 L 24 12 C 25.101563 12 26 11.101563 26 10 L 26 8 L 28 8 L 28 10 C 28 11.101563 28.898438 12 30 12 L 32 12 C 33.101563 12 34 11.101563 34 10 L 34 8 L 36 8 L 36 10 C 36 11.101563 36.898438 12 38 12 L 52 12 C 53.101563 12 54 11.101563 54 10 L 54 8 L 61 8 C 61.550781 8 62 8.449219 62 9 Z "></path>
<path style=" fill:#FFF6DF;" d="M 29 30 L 31 30 C 31.550781 30 32 29.554688 32 29 C 32 28.445313 31.550781 28 31 28 L 29 28 C 28.449219 28 28 28.445313 28 29 C 28 29.554688 28.449219 30 29 30 Z "></path>
<path style=" fill:#FFF6DF;" d="M 29 25 L 31 25 C 31.550781 25 32 24.554688 32 24 C 32 23.445313 31.550781 23 31 23 L 29 23 C 28.449219 23 28 23.445313 28 24 C 28 24.554688 28.449219 25 29 25 Z "></path>
<path style=" fill:#FFF6DF;" d="M 29 20 L 31 20 C 31.550781 20 32 19.554688 32 19 C 32 18.445313 31.550781 18 31 18 L 29 18 C 28.449219 18 28 18.445313 28 19 C 28 19.554688 28.449219 20 29 20 Z "></path>
<path style=" fill:#FFF6DF;" d="M 23 30 L 25 30 C 25.550781 30 26 29.554688 26 29 C 26 28.445313 25.550781 28 25 28 L 23 28 C 22.449219 28 22 28.445313 22 29 C 22 29.554688 22.449219 30 23 30 Z "></path>
<path style=" fill:#FFF6DF;" d="M 29 35 L 31 35 C 31.550781 35 32 34.554688 32 34 C 32 33.445313 31.550781 33 31 33 L 29 33 C 28.449219 33 28 33.445313 28 34 C 28 34.554688 28.449219 35 29 35 Z "></path>
<path style=" fill:#FFF6DF;" d="M 23 35 L 25 35 C 25.550781 35 26 34.554688 26 34 C 26 33.445313 25.550781 33 25 33 L 23 33 C 22.449219 33 22 33.445313 22 34 C 22 34.554688 22.449219 35 23 35 Z "></path>
<path style=" fill:#FFF6DF;" d="M 23 25 L 25 25 C 25.550781 25 26 24.554688 26 24 C 26 23.445313 25.550781 23 25 23 L 23 23 C 22.449219 23 22 23.445313 22 24 C 22 24.554688 22.449219 25 23 25 Z "></path>
<path style=" fill:#FFF6DF;" d="M 23 20 L 25 20 C 25.550781 20 26 19.554688 26 19 C 26 18.445313 25.550781 18 25 18 L 23 18 C 22.449219 18 22 18.445313 22 19 C 22 19.554688 22.449219 20 23 20 Z "></path>
<path style=" fill:#986CA1;" d="M 60.039063 54 C 60.039063 55.105469 59.144531 56 58.039063 56 C 56.933594 56 56.039063 55.105469 56.039063 54 C 56.039063 52.894531 56.933594 52 58.039063 52 C 59.144531 52 60.039063 52.894531 60.039063 54 Z "></path>
<path style=" fill:#986CA1;" d="M 60.039063 12 C 60.039063 13.105469 59.144531 14 58.039063 14 C 56.933594 14 56.039063 13.105469 56.039063 12 C 56.039063 10.894531 56.933594 10 58.039063 10 C 59.144531 10 60.039063 10.894531 60.039063 12 Z "></path>
<path style=" fill:#986CA1;" d="M 8.039063 54 C 8.039063 55.105469 7.144531 56 6.039063 56 C 4.933594 56 4.039063 55.105469 4.039063 54 C 4.039063 52.894531 4.933594 52 6.039063 52 C 7.144531 52 8.039063 52.894531 8.039063 54 Z "></path>
<path style=" fill:#986CA1;" d="M 8.039063 12 C 8.039063 13.105469 7.144531 14 6.039063 14 C 4.933594 14 4.039063 13.105469 4.039063 12 C 4.039063 10.894531 4.933594 10 6.039063 10 C 7.144531 10 8.039063 10.894531 8.039063 12 Z "></path>
<path style=" fill:#FFF6DF;" d="M 23 46 L 45 46 C 45.550781 46 46 45.554688 46 45 C 46 44.445313 45.550781 44 45 44 L 23 44 C 22.449219 44 22 44.445313 22 45 C 22 45.554688 22.449219 46 23 46 Z "></path>
<path style=" fill:#FFF6DF;" d="M 53 48 L 23 48 C 22.449219 48 22 48.445313 22 49 C 22 49.554688 22.449219 50 23 50 L 53 50 C 53.550781 50 54 49.554688 54 49 C 54 48.445313 53.550781 48 53 48 Z "></path>
<path style=" fill:#986CA1;" d="M 13 42 C 10.242188 42 8 44.242188 8 47 C 8 49.757813 10.242188 52 13 52 C 15.757813 52 18 49.757813 18 47 C 18 44.242188 15.757813 42 13 42 Z M 13 50 C 11.347656 50 10 48.652344 10 47 C 10 45.347656 11.347656 44 13 44 C 14.652344 44 16 45.347656 16 47 C 16 48.652344 14.652344 50 13 50 Z "></path>
<path style=" fill:#FFF6DF;" d="M 53 44 L 49 44 C 48.449219 44 48 44.445313 48 45 C 48 45.554688 48.449219 46 49 46 L 53 46 C 53.550781 46 54 45.554688 54 45 C 54 44.445313 53.550781 44 53 44 Z "></path>
<path style=" fill:#986CA1;" d="M 52 18 L 38 18 C 36.898438 18 36 18.898438 36 20 L 36 34 C 36 35.101563 36.898438 36 38 36 L 52 36 C 53.101563 36 54 35.101563 54 34 L 54 20 C 54 18.898438 53.101563 18 52 18 Z M 38 34 L 38 20 L 52 20 L 52 34 Z "></path>
<path style=" fill:#986CA1;" d="M 49 22 L 41 22 C 40.449219 22 40 22.445313 40 23 L 40 31 C 40 31.554688 40.449219 32 41 32 L 49 32 C 49.550781 32 50 31.554688 50 31 L 50 23 C 50 22.445313 49.550781 22 49 22 Z M 48 30 L 42 30 L 42 24 L 48 24 Z "></path>
<path style=" fill:#986CA1;" d="M 16 18 L 10 18 C 8.898438 18 8 18.898438 8 20 L 8 34 C 8 35.101563 8.898438 36 10 36 L 16 36 C 17.101563 36 18 35.101563 18 34 L 18 20 C 18 18.898438 17.101563 18 16 18 Z M 14 34 L 14 23 C 14 22.445313 13.550781 22 13 22 C 12.449219 22 12 22.445313 12 23 L 12 34 L 10 34 L 10 20 L 16 20 L 16 34 Z "></path>
</g>
</svg>