<svg xmlns="http://www.w3.org/2000/svg" xmlns:xlink="http://www.w3.org/1999/xlink" viewBox="0 0 64 64" version="1.1">
<g id="surface1">
<path style=" fill:#C2CDE7;" d="M 33 20 L 20 61 L 46 61 Z "></path>
<path style=" fill:#D6DFF2;" d="M 39.929688 40 L 33 20 L 25.070313 45 Z "></path>
<path style=" fill:#ACB7D0;" d="M 20 57 L 46 57 L 46 61 L 20 61 Z "></path>
<path style=" fill:#ED7899;" d="M 36.5 18 C 36.5 19.933594 34.933594 21.5 33 21.5 C 31.066406 21.5 29.5 19.933594 29.5 18 C 29.5 16.066406 31.066406 14.5 33 14.5 C 34.933594 14.5 36.5 16.066406 36.5 18 Z "></path>
<path style=" fill:#8D6C9F;" d="M 42 18 C 42.003906 20.386719 41.054688 22.675781 39.359375 24.359375 C 39.074219 24.605469 38.949219 24.988281 39.039063 25.351563 C 39.125 25.71875 39.410156 26.003906 39.777344 26.09375 C 40.140625 26.179688 40.527344 26.054688 40.769531 25.769531 C 42.859375 23.679688 44.019531 20.835938 43.988281 17.882813 C 43.960938 14.925781 42.742188 12.105469 40.609375 10.058594 C 40.207031 9.726563 39.613281 9.761719 39.25 10.140625 C 38.890625 10.515625 38.878906 11.109375 39.230469 11.5 C 41.007813 13.195313 42.007813 15.542969 42 18 Z "></path>
<path style=" fill:#8D6C9F;" d="M 45.460938 30.148438 C 45.851563 30.539063 46.480469 30.539063 46.871094 30.148438 C 50.148438 26.949219 52 22.5625 52 17.980469 C 52 13.398438 50.148438 9.007813 46.871094 5.808594 C 46.476563 5.421875 45.839844 5.429688 45.453125 5.824219 C 45.070313 6.21875 45.074219 6.851563 45.46875 7.238281 C 48.367188 10.0625 50 13.9375 50 17.980469 C 50 22.023438 48.367188 25.898438 45.46875 28.71875 C 45.277344 28.90625 45.164063 29.164063 45.164063 29.433594 C 45.164063 29.703125 45.269531 29.960938 45.460938 30.148438 Z "></path>
<path style=" fill:#8D6C9F;" d="M 53.261719 1.738281 L 53.109375 1.589844 C 52.722656 1.222656 52.117188 1.222656 51.730469 1.589844 C 51.53125 1.777344 51.417969 2.039063 51.417969 2.316406 C 51.417969 2.589844 51.53125 2.851563 51.730469 3.039063 L 51.800781 3.109375 C 60.003906 11.3125 60.003906 24.609375 51.800781 32.808594 C 51.515625 33.054688 51.390625 33.4375 51.476563 33.804688 C 51.566406 34.167969 51.851563 34.453125 52.214844 34.542969 C 52.582031 34.628906 52.964844 34.503906 53.210938 34.21875 C 62.175781 25.257813 62.195313 10.730469 53.261719 1.738281 Z "></path>
<path style=" fill:#8D6C9F;" d="M 25.929688 26.070313 C 26.335938 26.074219 26.703125 25.828125 26.859375 25.453125 C 27.015625 25.078125 26.929688 24.644531 26.640625 24.359375 C 24.929688 22.648438 23.976563 20.320313 24.003906 17.902344 C 24.027344 15.484375 25.023438 13.175781 26.769531 11.5 C 27.058594 11.261719 27.191406 10.882813 27.109375 10.515625 C 27.03125 10.148438 26.75 9.859375 26.390625 9.761719 C 26.027344 9.667969 25.640625 9.78125 25.390625 10.058594 C 23.257813 12.105469 22.039063 14.925781 22.011719 17.882813 C 21.980469 20.835938 23.140625 23.679688 25.230469 25.769531 C 25.414063 25.957031 25.667969 26.066406 25.929688 26.070313 Z "></path>
<path style=" fill:#8D6C9F;" d="M 19.128906 30.171875 C 19.523438 30.554688 20.160156 30.550781 20.546875 30.15625 C 20.929688 29.761719 20.925781 29.125 20.53125 28.738281 C 17.632813 25.917969 16 22.042969 16 18 C 16 13.957031 17.632813 10.082031 20.53125 7.261719 C 20.925781 6.875 20.929688 6.238281 20.546875 5.84375 C 20.160156 5.449219 19.523438 5.445313 19.128906 5.828125 C 15.851563 9.03125 14 13.417969 14 18 C 14 22.582031 15.851563 26.96875 19.128906 30.171875 Z "></path>
<path style=" fill:#8D6C9F;" d="M 14.148438 32.851563 C 5.953125 24.648438 5.953125 11.359375 14.148438 3.160156 L 14.289063 3 C 14.683594 2.613281 14.691406 1.980469 14.304688 1.585938 C 13.917969 1.191406 13.285156 1.183594 12.890625 1.570313 L 12.738281 1.71875 C 3.757813 10.703125 3.757813 25.269531 12.738281 34.25 C 13.136719 34.589844 13.726563 34.566406 14.097656 34.199219 C 14.46875 33.828125 14.488281 33.238281 14.148438 32.839844 Z "></path>
<path style=" fill:#8D6C9F;" d="M 28 48 C 27.449219 48 27 48.449219 27 49 L 27 51 C 27 51.550781 27.449219 52 28 52 C 28.550781 52 29 51.550781 29 51 L 29 49 C 29 48.449219 28.550781 48 28 48 Z "></path>
<path style=" fill:#8D6C9F;" d="M 33 48 C 32.449219 48 32 48.449219 32 49 L 32 51 C 32 51.550781 32.449219 52 33 52 C 33.550781 52 34 51.550781 34 51 L 34 49 C 34 48.449219 33.550781 48 33 48 Z "></path>
<path style=" fill:#8D6C9F;" d="M 38 52 C 38.550781 52 39 51.550781 39 51 L 39 49 C 39 48.449219 38.550781 48 38 48 C 37.449219 48 37 48.449219 37 49 L 37 51 C 37 51.550781 37.449219 52 38 52 Z "></path>
<path style=" fill:#8D6C9F;" d="M 51 60 L 47.730469 60 L 35.148438 21.359375 C 36.652344 20.40625 37.34375 18.574219 36.847656 16.867188 C 36.347656 15.160156 34.785156 13.984375 33.003906 13.984375 C 31.226563 13.984375 29.660156 15.160156 29.164063 16.867188 C 28.667969 18.574219 29.359375 20.40625 30.859375 21.359375 L 18.269531 60 L 15 60 C 14.449219 60 14 60.449219 14 61 C 14 61.550781 14.449219 62 15 62 L 51 62 C 51.550781 62 52 61.550781 52 61 C 52 60.449219 51.550781 60 51 60 Z M 28.871094 33.910156 L 37.390625 39.589844 L 25.449219 44.421875 Z M 30.628906 32.679688 L 36 30.558594 L 38.378906 37.878906 Z M 33 16 C 34.105469 16 35 16.894531 35 18 C 35 19.105469 34.105469 20 33 20 C 31.894531 20 31 19.105469 31 18 C 31 16.894531 31.894531 16 33 16 Z M 33 22 L 33.238281 22 L 35.410156 28.679688 L 29.871094 30.859375 L 32.761719 22 Z M 20.378906 60 L 21 58 L 34 58 C 34.550781 58 35 57.550781 35 57 C 35 56.449219 34.550781 56 34 56 L 21.679688 56 L 23 52 C 23.550781 52 24 51.550781 24 51 L 24 49 C 24 49 24 48.949219 24 48.921875 L 24.679688 46.839844 C 24.777344 46.832031 24.871094 46.8125 24.960938 46.78125 L 39.429688 40.921875 L 42.03125 48.921875 C 42.03125 48.921875 42 49 42 49 L 42 51 C 42 51.550781 42.449219 52 43 52 L 45.609375 60 Z "></path>
<path style=" fill:#8D6C9F;" d="M 42 56 L 38 56 C 37.449219 56 37 56.449219 37 57 C 37 57.550781 37.449219 58 38 58 L 42 58 C 42.550781 58 43 57.550781 43 57 C 43 56.449219 42.550781 56 42 56 Z "></path>
</g>
</svg>