<svg xmlns="http://www.w3.org/2000/svg" xmlns:xlink="http://www.w3.org/1999/xlink" viewBox="0 0 64 64" version="1.1">
<g id="surface1">
<path style=" fill:#CDA1A7;" d="M 3 17 L 54 17 C 55.699219 17 57 18.300781 57 20 L 57 52 C 57 53.699219 55.699219 55 54 55 L 6 55 C 4.300781 55 3 53.699219 3 52 Z "></path>
<path style=" fill:#F9E3AE;" d="M 45 42 L 57 42 C 58.101563 42 59 41.101563 59 40 L 59 32 C 59 30.898438 58.101563 30 57 30 L 45 30 C 42.800781 30 41 31.800781 41 34 L 41 38 C 41 40.199219 42.800781 42 45 42 Z "></path>
<path style=" fill:#FAEFDE;" d="M 46 17 L 6 17 C 4.300781 17 3 15.699219 3 14 L 3 12 C 3 10.300781 4.300781 9 6 9 L 46 9 C 47.699219 9 49 10.300781 49 12 L 49 14 C 49 15.699219 47.699219 17 46 17 Z "></path>
<path style=" fill:#BBDEF9;" d="M 49 36 C 49 37.105469 48.105469 38 47 38 C 45.894531 38 45 37.105469 45 36 C 45 34.894531 45.894531 34 47 34 C 48.105469 34 49 34.894531 49 36 Z "></path>
<path style=" fill:#C4939C;" d="M 3 52 L 3 17 L 8 17 C 9.699219 17 11 18.300781 11 20 L 11 52 C 11 53.699219 9.699219 55 8 55 L 6 55 C 4.300781 55 3 53.699219 3 52 Z "></path>
<path style=" fill:#8D6C9F;" d="M 37 14 L 41 14 C 41.601563 14 42 13.601563 42 13 C 42 12.398438 41.601563 12 41 12 L 37 12 C 36.398438 12 36 12.398438 36 13 C 36 13.601563 36.398438 14 37 14 Z "></path>
<path style=" fill:#8D6C9F;" d="M 7 14 L 33 14 C 33.601563 14 34 13.601563 34 13 C 34 12.398438 33.601563 12 33 12 L 7 12 C 6.398438 12 6 12.398438 6 13 C 6 13.601563 6.398438 14 7 14 Z "></path>
<path style=" fill:#8D6C9F;" d="M 47 33 C 45.300781 33 44 34.300781 44 36 C 44 37.699219 45.300781 39 47 39 C 48.699219 39 50 37.699219 50 36 C 50 34.300781 48.699219 33 47 33 Z M 47 37.398438 C 46.199219 37.398438 45.601563 36.800781 45.601563 36 C 45.601563 35.199219 46.199219 34.601563 47 34.601563 C 47.800781 34.601563 48.398438 35.199219 48.398438 36 C 48.398438 36.800781 47.800781 37.398438 47 37.398438 Z "></path>
<path style=" fill:#8D6C9F;" d="M 13 20 C 12.398438 20 12 20.398438 12 21 L 12 23 C 12 23.601563 12.398438 24 13 24 C 13.601563 24 14 23.601563 14 23 L 14 21 C 14 20.398438 13.601563 20 13 20 Z "></path>
<path style=" fill:#8D6C9F;" d="M 8 20 C 7.398438 20 7 20.398438 7 21 L 7 23 C 7 23.601563 7.398438 24 8 24 C 8.601563 24 9 23.601563 9 23 L 9 21 C 9 20.398438 8.601563 20 8 20 Z "></path>
<path style=" fill:#8D6C9F;" d="M 8 48 C 7.398438 48 7 48.398438 7 49 L 7 51 C 7 51.601563 7.398438 52 8 52 C 8.601563 52 9 51.601563 9 51 L 9 49 C 9 48.398438 8.601563 48 8 48 Z "></path>
<path style=" fill:#8D6C9F;" d="M 18 20 C 17.398438 20 17 20.398438 17 21 L 17 23 C 17 23.601563 17.398438 24 18 24 C 18.601563 24 19 23.601563 19 23 L 19 21 C 19 20.398438 18.601563 20 18 20 Z "></path>
<path style=" fill:#8D6C9F;" d="M 23 20 C 22.398438 20 22 20.398438 22 21 L 22 23 C 22 23.601563 22.398438 24 23 24 C 23.601563 24 24 23.601563 24 23 L 24 21 C 24 20.398438 23.601563 20 23 20 Z "></path>
<path style=" fill:#8D6C9F;" d="M 28 20 C 27.398438 20 27 20.398438 27 21 L 27 23 C 27 23.601563 27.398438 24 28 24 C 28.601563 24 29 23.601563 29 23 L 29 21 C 29 20.398438 28.601563 20 28 20 Z "></path>
<path style=" fill:#8D6C9F;" d="M 33 20 C 32.398438 20 32 20.398438 32 21 L 32 23 C 32 23.601563 32.398438 24 33 24 C 33.601563 24 34 23.601563 34 23 L 34 21 C 34 20.398438 33.601563 20 33 20 Z "></path>
<path style=" fill:#8D6C9F;" d="M 38 20 C 37.398438 20 37 20.398438 37 21 L 37 23 C 37 23.601563 37.398438 24 38 24 C 38.601563 24 39 23.601563 39 23 L 39 21 C 39 20.398438 38.601563 20 38 20 Z "></path>
<path style=" fill:#8D6C9F;" d="M 43 24 C 43.601563 24 44 23.601563 44 23 L 44 21 C 44 20.398438 43.601563 20 43 20 C 42.398438 20 42 20.398438 42 21 L 42 23 C 42 23.601563 42.398438 24 43 24 Z "></path>
<path style=" fill:#8D6C9F;" d="M 48 24 C 48.601563 24 49 23.601563 49 23 L 49 21 C 49 20.398438 48.601563 20 48 20 C 47.398438 20 47 20.398438 47 21 L 47 23 C 47 23.601563 47.398438 24 48 24 Z "></path>
<path style=" fill:#8D6C9F;" d="M 53 24 C 53.601563 24 54 23.601563 54 23 L 54 21 C 54 20.398438 53.601563 20 53 20 C 52.398438 20 52 20.398438 52 21 L 52 23 C 52 23.601563 52.398438 24 53 24 Z "></path>
<path style=" fill:#8D6C9F;" d="M 13 48 C 12.398438 48 12 48.398438 12 49 L 12 51 C 12 51.601563 12.398438 52 13 52 C 13.601563 52 14 51.601563 14 51 L 14 49 C 14 48.398438 13.601563 48 13 48 Z "></path>
<path style=" fill:#8D6C9F;" d="M 18 48 C 17.398438 48 17 48.398438 17 49 L 17 51 C 17 51.601563 17.398438 52 18 52 C 18.601563 52 19 51.601563 19 51 L 19 49 C 19 48.398438 18.601563 48 18 48 Z "></path>
<path style=" fill:#8D6C9F;" d="M 23 48 C 22.398438 48 22 48.398438 22 49 L 22 51 C 22 51.601563 22.398438 52 23 52 C 23.601563 52 24 51.601563 24 51 L 24 49 C 24 48.398438 23.601563 48 23 48 Z "></path>
<path style=" fill:#8D6C9F;" d="M 28 48 C 27.398438 48 27 48.398438 27 49 L 27 51 C 27 51.601563 27.398438 52 28 52 C 28.601563 52 29 51.601563 29 51 L 29 49 C 29 48.398438 28.601563 48 28 48 Z "></path>
<path style=" fill:#8D6C9F;" d="M 33 48 C 32.398438 48 32 48.398438 32 49 L 32 51 C 32 51.601563 32.398438 52 33 52 C 33.601563 52 34 51.601563 34 51 L 34 49 C 34 48.398438 33.601563 48 33 48 Z "></path>
<path style=" fill:#8D6C9F;" d="M 38 48 C 37.398438 48 37 48.398438 37 49 L 37 51 C 37 51.601563 37.398438 52 38 52 C 38.601563 52 39 51.601563 39 51 L 39 49 C 39 48.398438 38.601563 48 38 48 Z "></path>
<path style=" fill:#8D6C9F;" d="M 43 48 C 42.398438 48 42 48.398438 42 49 L 42 51 C 42 51.601563 42.398438 52 43 52 C 43.601563 52 44 51.601563 44 51 L 44 49 C 44 48.398438 43.601563 48 43 48 Z "></path>
<path style=" fill:#8D6C9F;" d="M 48 48 C 47.398438 48 47 48.398438 47 49 L 47 51 C 47 51.601563 47.398438 52 48 52 C 48.601563 52 49 51.601563 49 51 L 49 49 C 49 48.398438 48.601563 48 48 48 Z "></path>
<path style=" fill:#8D6C9F;" d="M 53 48 C 52.398438 48 52 48.398438 52 49 L 52 51 C 52 51.601563 52.398438 52 53 52 C 53.601563 52 54 51.601563 54 51 L 54 49 C 54 48.398438 53.601563 48 53 48 Z "></path>
<path style=" fill:#8D6C9F;" d="M 58 29.199219 L 58 19 C 58 17.300781 56.699219 16 55 16 L 50 16 L 50 11 C 50 9.300781 48.699219 8 47 8 L 6 8 C 3.800781 8 2 9.800781 2 12 L 2 52 C 2 54.199219 3.800781 56 6 56 L 55 56 C 56.699219 56 58 54.699219 58 53 L 58 42.800781 C 59.199219 42.398438 60 41.300781 60 40 L 60 32 C 60 30.699219 59.199219 29.601563 58 29.199219 Z M 4 12 C 4 10.898438 4.898438 10 6 10 L 47 10 C 47.601563 10 48 10.398438 48 11 L 48 16 L 6 16 C 4.898438 16 4 15.101563 4 14 Z M 55 54 L 6 54 C 4.898438 54 4 53.101563 4 52 L 4 17.398438 C 4.601563 17.800781 5.300781 18 6 18 L 55 18 C 55.601563 18 56 18.398438 56 19 L 56 29 L 45 29 C 42.199219 29 40 31.199219 40 34 L 40 38 C 40 40.800781 42.199219 43 45 43 L 56 43 L 56 53 C 56 53.601563 55.601563 54 55 54 Z M 58 40 C 58 40.601563 57.601563 41 57 41 L 45 41 C 43.300781 41 42 39.699219 42 38 L 42 34 C 42 32.300781 43.300781 31 45 31 L 57 31 C 57.601563 31 58 31.398438 58 32 Z "></path>
</g>
</svg>